<?xml version="1.0" encoding="UTF-8" standalone="no"?>
<svg
   xmlns:dc="http://purl.org/dc/elements/1.1/"
   xmlns:cc="http://creativecommons.org/ns#"
   xmlns:rdf="http://www.w3.org/1999/02/22-rdf-syntax-ns#"
   xmlns:svg="http://www.w3.org/2000/svg"
   xmlns="http://www.w3.org/2000/svg"
   version="1.1"
   id="svg2"
   width="470.74994"
   height="470.74994"
   viewBox="-1 -1 470.74994 470.74994">
  <metadata
     id="metadata8">
    <rdf:RDF>
      <cc:Work
         rdf:about="">
        <dc:format>image/svg+xml</dc:format>
        <dc:type
           rdf:resource="http://purl.org/dc/dcmitype/StillImage" />
        <dc:title></dc:title>
      </cc:Work>
    </rdf:RDF>
  </metadata>
  <defs
     id="defs6" />
  <g
     transform="translate(-8.0090633,-7.7666004)"
     style="mix-blend-mode:normal"
     id="layer2" />
  <g
     transform="translate(-8.0090633,-7.7666004)"
     style="mix-blend-mode:normal"
     id="layer3">
    <g
       transform="translate(-3750.9021,-2978.0076)"
       id="g1159">
      <circle
         style="fill:#ffffff;fill-opacity:1;stroke:#000000;stroke-width:2;stroke-linejoin:round;paint-order:markers fill stroke"
         id="path832"
         cx="3993.2861"
         cy="3220.1492"
         r="234.37497" />
      <g
         id="g1076"
         transform="translate(3826.8,3051.95)">
        <g
           id="g987">
	<path
   id="path835"
   d="m 189.3,237 c -0.5,-0.3 -1.1,-0.6 -1.7,-0.8 -1.3,-0.5 -2.6,-0.9 -3.9,-1.4 -4,-1.4 -8.1,-2.5 -12.4,-2.8 -3,-0.2 -5.9,-0.2 -8.9,-0.1 -2.8,0.1 -5.7,0.3 -8.5,0.5 -0.5,0 -1,0.2 -1.5,0.4 -0.9,0.4 -1.4,1.1 -1.5,2.1 0,0.9 0.5,1.7 1.3,2.1 0.4,0.2 0.9,0.4 1.4,0.5 2.1,0.5 4.3,0.9 6.4,1.3 1.9,0.4 3.8,0.9 5.7,1.6 -0.3,0.4 -0.5,0.7 -0.7,1 -0.5,1 0.2,2 1.3,1.8 0.5,-0.1 1,-0.3 1.5,-0.6 0.6,-0.4 1.2,-0.8 1.9,-1.3 0.1,0.1 0.1,0.2 0.2,0.2 -0.3,0.5 -0.7,0.9 -0.8,1.4 -0.4,1.1 0.2,1.9 1.4,1.8 0.5,-0.1 1.1,-0.3 1.5,-0.6 0.5,-0.3 1,-0.8 1.5,-1.2 0.4,-0.4 0.8,-0.5 1.3,-0.3 1.4,0.4 2.8,0.7 4.1,1.1 1.2,0.4 2.3,1.1 3.5,1.6 2.7,1.1 5,0.8 6.6,-1.8 0.5,-0.8 1,-1.7 1.4,-2.6 0.8,-1.7 0.5,-2.9 -1.1,-3.9 z"
   fill="none" />

	<path
   id="path837"
   d="m 131.5,300.3 c -0.1,0.4 0.1,0.9 0.3,1.4 1.3,3.3 3.3,6.2 6.2,8.4 4.7,3.5 10.1,5.2 15.9,5.8 2.3,0.2 4.5,0.2 6.8,0.4 3.9,0.2 7.8,0.1 11.7,-0.5 6.1,-0.9 11.8,-2.8 17.2,-5.8 0.5,-0.3 1,-0.7 1.3,-1.2 1.2,-1.5 2.4,-3 3.6,-4.5 1,-1.3 1.9,-2.6 2.9,-4 0.6,-0.8 0.9,-1.8 0.9,-2.9 -1,-0.1 -1.8,-0.3 -2.7,-0.4 -6.9,-0.9 -13.4,-3.1 -19.7,-6.2 -0.6,-0.3 -1.2,-0.6 -1.9,-0.8 -2.5,-1 -5,-2.1 -7.5,-3.1 -0.1,-0.1 -0.3,-0.1 -0.5,-0.1 -0.7,4.3 -0.4,8.8 -2.7,13 -2.3,-4.3 -1.9,-8.8 -1.8,-13.3 -0.6,0 -1.3,-0.2 -1.7,0 -0.7,0.4 -1.2,1.1 -1.8,1.7 -0.3,-0.6 -0.7,-0.4 -1.1,-0.2 -4.4,2.1 -9.1,3.6 -13.4,5.9 -0.2,0.1 -0.5,0.2 -0.7,0.3 -3.8,1.5 -7.6,2.7 -11.6,3.4 0.2,0.9 0.5,1.8 0.3,2.7 z"
   fill="none" />

	<path
   id="path839"
   d="m 129.1,298.1 c -0.3,0 -0.6,0 -1,0 0,0.1 0,0.1 0,0.2 0.3,0 0.7,0 1,-0.1 0,0 0,-0.1 0,-0.1 z"
   fill="none" />

	<path
   id="path841"
   d="m 63.3,11 c -2,-1.3 -3.6,-2.9 -5.6,-4 -1.2,0.7 -2.4,1.4 -3.6,2.1 0.2,0.3 0.3,0.5 0.4,0.6 -0.3,0.2 -0.5,0.4 -0.7,0.6 1,2.1 1.8,4.1 2.8,6 0.3,0.5 0.6,1.1 1,1.5 0.5,0.6 1.1,0.8 1.8,0.8 0.8,0 1.3,-0.5 1.3,-1.3 0,-0.5 -0.1,-1.1 -0.2,-1.6 -0.1,-0.4 -0.2,-0.8 -0.3,-1.2 0.8,0.5 1.8,1 2,1.8 0.3,1.1 0.9,1.6 1.9,1.9 0.2,0.1 0.4,0.3 0.6,0.5 0.9,1 1.9,1.9 2.8,2.9 2.6,3.1 5.2,6.3 7.8,9.5 1.7,2.2 3.5,4.4 5.1,6.7 5.2,7.7 9.6,15.9 13.6,24.3 5,10.5 9.9,21 14.8,31.5 3.6,7.7 7,15.4 9.6,23.5 0.5,1.6 1.1,3.1 1.7,4.6 0.3,0.7 0.6,1.4 1.1,2 1.1,1.3 2.9,1.2 3.8,-0.2 0.1,-0.2 0.2,-0.4 0.4,-0.8 0.7,1.4 1.6,2.7 1.7,4.2 0.1,1.5 0.2,2.9 0.3,4.4 0.1,0.9 0.5,1.3 1.3,1.1 0.5,-0.1 1.1,-0.4 1.4,-0.8 0.4,-0.5 0.6,-1.2 0.8,-1.9 0.2,-0.6 0.4,-1.3 0.6,-1.9 1.2,0.7 1.7,1.6 1.5,2.8 -0.1,0.7 0,1.5 0.2,2.2 0.1,0.5 0.6,0.9 1,1.3 0.2,0.2 0.8,0.2 0.9,0 0.6,-0.7 1.9,-0.8 2,-2 0,-0.2 0.5,-0.4 0.7,-0.4 0.5,0 1,0 1.4,0.1 1.5,0.6 3,0.9 4.7,0.8 1,0 2.1,0 3.1,0 9.6,0 19.3,0.1 28.9,0 3.2,0 6.4,-0.2 9.6,-1.1 1.2,-0.4 2.4,-0.6 3.6,-0.4 1.3,0.2 2.7,-0.1 3.9,0.4 0.3,0.1 0.9,0 1.3,-0.1 1.2,-0.3 1.8,-1.2 1.7,-2.7 -0.1,-2 0.5,-3.8 1.4,-5.5 0.1,-0.2 0.3,-0.5 0.6,-0.9 0.2,0.6 0.4,1 0.5,1.3 0.2,0.9 0.3,1.9 0.6,2.8 0.2,0.8 0.6,1.5 1.7,1.9 0.5,-1.9 1,-3.6 1.3,-5.4 0.3,-1.7 0.5,-3.5 0.7,-5.3 0.6,1.1 1.1,2.1 1.7,3.1 0.2,0.3 0.4,0.5 0.7,0.7 0.4,0.3 0.8,0.5 1.4,0.8 -1.4,-2.9 -1.6,-5.8 -1.7,-8.7 0.2,0 0.2,0 0.3,0 0.8,1 1.6,2 2.4,3 0.9,1.1 2.2,1.1 3.1,0.2 0.3,-0.3 0.5,-0.6 0.7,-0.9 1.6,-2.7 3.3,-5.4 4.8,-8.2 4.5,-8.5 8.9,-17 13.3,-25.5 4.7,-9 9.4,-18 15.1,-26.4 4.3,-6.3 9,-12.3 14.4,-17.7 4.6,-4.7 9.8,-8.8 14.9,-12.9 3,-2.4 6.4,-3.9 10.2,-4.6 1.5,-0.3 3.1,-0.5 4.8,-0.3 -0.4,0.4 -0.8,0.8 -1.1,1.2 -0.3,0.4 -0.5,0.8 -0.3,1.3 0.3,0.5 0.7,0.7 1.3,0.8 0.2,0 0.5,-0.1 0.7,-0.2 0.8,-0.5 1.7,-0.9 2.4,-1.4 0.6,-0.4 1.2,-1 1.8,-1.4 0.8,0.3 1.5,0.6 2.3,0.9 -0.5,0.5 -1,0.8 -1.4,1.2 -0.4,0.4 -0.6,0.9 -0.3,1.5 0.3,0.6 0.8,0.8 1.4,0.8 0.3,0 0.5,-0.1 0.7,-0.2 1.7,-0.6 3,-1.7 4.4,-2.6 -0.1,-0.2 -0.2,-0.3 -0.2,-0.3 -2,-2.1 -3.9,-4.2 -5.9,-6.3 -0.3,-0.3 -0.8,-0.5 -1.2,-0.6 -1.2,-0.2 -2.5,-0.2 -3.7,-0.3 -0.5,-2 -1.2,-2.5 -3.3,-2.6 -0.2,0 -0.3,0 -0.5,0 -0.9,0.1 -1.7,-0.2 -2.4,-0.7 -0.9,-0.6 -1.8,-1.2 -2.9,-1.9 -1.2,0.7 -2.6,1.4 -3.9,2.1 -11.9,7.4 -22.7,16.3 -32,26.8 -7.4,8.3 -13.9,17.3 -19.5,26.9 -6.8,11.7 -13.2,23.6 -19.3,35.7 -0.4,0.8 -0.9,1.7 -1.2,2.6 -0.3,0.8 -0.7,1.3 -1.2,1.9 -0.6,0.7 -1.4,1.3 -1.6,2.1 -0.6,1.9 -1.9,3.2 -3.1,4.7 -0.3,0.4 -0.6,0.8 -0.9,1.3 -0.4,0.7 -0.9,1.4 -1.4,2.2 -0.7,-1.1 -1.6,-0.8 -2.6,-0.7 -1.4,0.2 -2.2,1 -2.9,2.1 -0.7,1.1 -0.9,2.3 -0.9,3.6 0,0.9 0,1.9 0,2.9 -0.3,0 -0.5,0.1 -0.8,0.1 -2.4,0 -4.7,0 -7.1,0 -3,0.1 -5.9,0.1 -8.9,0.2 -2.6,0.1 -5.1,0.4 -7.7,0.4 -8.4,0 -16.8,-0.1 -25.1,-0.3 -1.1,0 -2.2,-0.3 -3.2,-0.4 -0.2,-1 -0.3,-1.8 -0.6,-2.6 -0.3,-1.2 -0.8,-1.5 -2,-1.5 -1.8,-2.1 -2.2,-2.2 -3.8,-1.1 -0.5,-0.7 -0.5,-0.7 -0.9,-2.1 -1.3,-5.5 -3.1,-10.9 -5.4,-16.1 C 120.3,90.1 115.2,80.4 110,70.7 104,60 98,49.6 91.4,39.6 84.4,28.9 77.4,18.3 70.4,7.6 70.2,7.3 70,7 69.7,6.6 c -2.8,0.3 -5.5,0.7 -8.4,1 0.7,1.2 1.3,2.3 2,3.4 z" />

	<path
   id="path843"
   d="m 107.1,296.3 c 1.1,0.5 2.2,1.1 3.3,1.4 1.4,0.4 2.9,0.6 4.4,0.7 2.3,0.2 4.7,0.5 7,-0.1 1.1,-0.2 2,0 2.6,0.9 0.2,0.2 0.4,0.6 0.6,0.6 0.6,0.2 0.7,0.6 0.9,1.2 1.2,3.9 3.1,7.4 6.5,9.8 0.2,0.2 0.4,0.3 0.6,0.5 2.8,3 6.1,5.4 9.7,7.4 3.8,2.2 7.8,3.9 12.2,4.1 4.9,0.3 9.8,0.1 14.6,-0.8 0.5,-0.1 1.2,-0.3 1.6,-0.1 2.1,0.7 4.1,0.3 6.2,-0.4 0.4,-0.1 0.9,-0.2 1.2,-0.1 1.7,0.5 3.2,0.2 4.8,-0.5 3.8,-1.7 7.1,-4.1 10.2,-6.9 2.9,-2.5 5.3,-5.5 7.6,-8.6 1.6,-2.1 2.8,-4.4 3.4,-7 0.1,-0.3 0.2,-0.6 0.3,-0.9 1.9,-0.1 3.7,-0.2 5.5,-0.4 1.9,-0.2 3.8,-0.5 5.6,-1.5 1,-0.5 2,-1.1 3.1,-0.9 0.1,-0.9 0.1,-0.9 0.7,-1.4 0.6,-0.6 1.3,-1.2 1.8,-1.8 5,-5.8 8,-12.6 9.6,-20 0.2,-0.9 -0.1,-1.9 -0.1,-2.9 0,-0.4 -0.1,-0.8 -0.1,-1.3 0.1,-1.9 0.5,-3.8 0.1,-5.6 -0.1,-0.7 0.1,-1.3 0.7,-1.8 0.5,0.2 1.1,0.3 1.7,0.5 2,0.4 3.9,1.1 5.9,1.1 1.7,0 3.4,-0.5 5.2,-0.3 0,0 0,-0.1 0.2,-0.2 -0.6,-0.9 -1.3,-1.8 -1.9,-2.8 -0.7,-1.1 -1.7,-1.6 -2.8,-1.9 -3.5,-1 -7,-1.9 -10.6,-2.8 -0.3,-0.1 -0.7,-0.1 -1,-0.1 -0.5,0 -1,0.2 -1.5,0.2 -1.3,0.1 -2.3,1 -2.3,2.3 0,1.6 -0.2,3.1 -0.1,4.7 0.2,3 0,6 -0.1,9 0,0.8 -0.2,1.5 -0.5,2.2 -2.9,7 -7.8,12.4 -13.4,17.4 -0.4,0.3 -0.8,0.4 -1.3,0.3 -2.2,-0.4 -4.4,-0.8 -6.6,-1.1 -3.7,-0.5 -7.3,-0.8 -11,-1.3 -5.9,-0.7 -11.6,-1.9 -17.2,-3.8 -3.1,-1 -6.2,-2.3 -9.4,-3.4 -0.1,0.8 -0.7,0.5 -1.2,0.4 -1.9,-0.3 -3.7,-0.2 -5.4,0.7 -8.8,4.1 -18.1,6.2 -27.6,7.4 -2.9,0.4 -5.8,0.7 -8.7,1 -1.6,0.2 -3.2,0.2 -4.7,0.3 -0.7,0 -1.5,-0.2 -2.2,-0.2 -1,0 -1.8,-0.2 -2.4,-1 -0.2,-0.2 -0.4,-0.4 -0.6,-0.5 -2.9,-2.9 -5.5,-6 -7.4,-9.7 -2.4,-4.8 -3.8,-9.8 -4.4,-15.1 -0.1,-1 -0.2,-2.1 -0.5,-3 -0.4,-1 -0.6,-1.9 -0.6,-3 0,-1.4 -1,-2.4 -2.4,-2.4 -0.3,0 -0.7,0.1 -0.9,-0.1 -0.7,-0.4 -1.3,-0.1 -2,0.1 -3.1,0.8 -6.1,1.7 -9.2,2.5 -0.7,0.2 -1.4,0.3 -2.1,0.7 -1.8,0.9 -2.3,2.8 -3.5,4.4 0.6,0.1 1,0.1 1.5,0 0.8,-0.1 1.6,-0.1 2.4,0.2 0.7,0.2 1.5,0.3 2.3,0.2 1.9,-0.3 3.7,-0.8 5.5,-1.2 0.4,-0.1 0.8,-0.2 1.2,-0.3 0.6,0.7 0.6,1.3 0.7,1.9 0,1.8 0.1,3.7 0.2,5.5 0,0.4 0.1,0.8 -0.1,1.1 -0.5,1.2 -0.4,2.5 0,3.7 2.1,8.2 5.3,15.8 11.8,21.6 0.4,0.3 0.2,0.6 -0.2,0.8 -3.9,-3.7 -7.4,-7.5 -10.6,-11.8 -2.7,-3.6 -5.1,-7.5 -8.2,-10.9 -0.3,-0.3 -0.4,-0.7 -0.7,-1.1 -0.3,-0.3 -0.6,-0.6 -0.9,-0.9 -0.9,0.9 -1.1,1.3 -0.7,2.5 0.4,1.3 1,2.6 1.6,3.8 3.3,6.1 7.3,11.7 12.3,16.7 3.2,3.2 6.6,6.2 10.7,8.4 1.3,0.7 2.7,1.3 4.2,1.6 1.4,0.3 2.9,0.4 4,1.7 0.2,-0.8 -0.3,-0.9 -0.7,-1.2 -0.7,-0.5 -1.5,-1 -2.2,-1.6 -0.6,-0.5 -1.2,-1 -1.8,-1.4 -1.9,-1.6 -3.9,-3.1 -5.8,-4.7 -0.2,-0.2 -0.3,-0.3 -0.6,-0.6 0.7,-0.6 1.4,-0.4 2,-0.1 z m 35.7,-2.1 c 0.2,-0.1 0.5,-0.2 0.7,-0.3 4.3,-2.3 9,-3.8 13.4,-5.9 0.5,-0.2 0.8,-0.4 1.1,0.2 0.6,-0.6 1.1,-1.3 1.8,-1.7 0.4,-0.2 1.1,0 1.7,0 -0.1,4.5 -0.5,9 1.8,13.3 2.2,-4.2 2,-8.7 2.7,-13 0.2,0 0.4,0.1 0.5,0.1 2.5,1 5,2.1 7.5,3.1 0.6,0.3 1.3,0.5 1.9,0.8 6.2,3.1 12.7,5.3 19.7,6.2 0.9,0.1 1.8,0.2 2.7,0.4 0.1,1.1 -0.3,2 -0.9,2.9 -0.9,1.3 -1.9,2.7 -2.9,4 -1.2,1.5 -2.4,3.1 -3.6,4.5 -0.4,0.5 -0.8,0.9 -1.3,1.2 -5.4,3 -11.2,4.9 -17.2,5.8 -3.9,0.6 -7.8,0.7 -11.7,0.5 -2.3,-0.1 -4.6,-0.1 -6.8,-0.4 -5.8,-0.6 -11.1,-2.4 -15.9,-5.8 -2.9,-2.1 -4.9,-5 -6.2,-8.4 -0.2,-0.4 -0.4,-1 -0.3,-1.4 0.3,-0.9 0,-1.8 -0.3,-2.7 4,-0.7 7.8,-1.9 11.6,-3.4 z m -14.7,3.9 c 0.3,0 0.6,0 1,0 0,0.1 0,0.1 0,0.2 -0.3,0 -0.7,0 -1,0.1 0,-0.2 0,-0.3 0,-0.3 z" />

	<path
   id="path845"
   d="m 197.4,232.5 c -0.4,-0.2 -0.8,-0.4 -1.1,-0.6 -1.9,-1.8 -4.2,-2.7 -6.6,-3.3 -1.1,-0.3 -2.2,-0.6 -3.3,-1 -2.6,-0.8 -5.2,-1.4 -7.9,-1.6 -3.5,-0.2 -7,-0.3 -10.6,-0.4 0,0 0,0.1 0,0.1 -2.1,0 -4.3,-0.1 -6.4,0 -1.8,0.1 -3.5,0.2 -5.2,0.6 -1.7,0.4 -3.4,0.5 -5.1,0.7 -1.7,0.2 -3.3,0.3 -5,0.6 -1.6,0.3 -3.1,0.8 -4.7,1.2 -1.6,0.4 -2.9,1.6 -4.6,1.8 -0.3,0 -0.5,0.3 -0.8,0.4 -2.2,1.6 -3.4,3.9 -4.3,6.4 -0.1,0.2 -0.1,0.5 -0.1,0.8 0,3.9 0.5,7.7 1.9,11.4 0.3,0.8 0.8,1.5 1.4,2.1 5.3,5 11.3,8.6 18.2,10.8 2.7,0.9 5.4,1.5 8.2,1.2 1.2,-0.1 2.4,0 3.6,-0.1 0.8,0 1.6,-0.1 2.3,-0.2 3.3,-0.7 6.5,-1.5 9.8,-2.3 2.4,-0.6 4.8,-1.1 6.9,-2.6 1.4,-1 2.9,-1.7 4.4,-2.6 0.4,-0.2 0.7,-0.4 1.1,-0.7 2.4,-2 4.9,-4.1 6.7,-6.8 0.6,-0.9 1.3,-1.8 1.7,-2.9 0.7,-2.1 1.3,-4.3 1.8,-6.5 0.2,-1.1 0.2,-2.3 0.1,-3.5 -0.3,-1.1 -1.1,-2.2 -2.4,-3 z m -6.9,8.3 c -0.4,0.9 -0.9,1.8 -1.4,2.6 -1.6,2.6 -3.9,2.9 -6.6,1.8 -1.2,-0.5 -2.3,-1.1 -3.5,-1.6 -1.3,-0.5 -2.7,-0.7 -4.1,-1.1 -0.5,-0.1 -0.9,0 -1.3,0.3 -0.5,0.4 -1,0.9 -1.5,1.2 -0.5,0.3 -1,0.5 -1.5,0.6 -1.2,0.1 -1.8,-0.7 -1.4,-1.8 0.2,-0.5 0.6,-0.9 0.8,-1.4 -0.1,-0.1 -0.1,-0.2 -0.2,-0.2 -0.6,0.4 -1.2,0.9 -1.9,1.3 -0.5,0.3 -1,0.6 -1.5,0.6 -1.1,0.1 -1.8,-0.8 -1.3,-1.8 0.2,-0.3 0.4,-0.6 0.7,-1 -1.9,-0.7 -3.7,-1.2 -5.7,-1.6 -2.1,-0.4 -4.3,-0.9 -6.4,-1.3 -0.5,-0.1 -1,-0.3 -1.4,-0.5 -0.8,-0.4 -1.3,-1.1 -1.3,-2.1 0,-1 0.6,-1.7 1.5,-2.1 0.5,-0.2 1,-0.4 1.5,-0.4 2.8,-0.2 5.7,-0.5 8.5,-0.5 3,-0.1 5.9,-0.1 8.9,0.1 4.3,0.3 8.4,1.4 12.4,2.8 1.3,0.4 2.6,0.9 3.9,1.4 0.6,0.2 1.2,0.5 1.7,0.8 1.5,1.1 1.8,2.3 1.1,3.9 z" />

	<path
   id="path847"
   d="m 76.2,131.8 c 6.1,-4.8 10.6,-10.9 14.6,-17.4 1.1,-1.8 2.1,-3.7 3.1,-5.6 0.1,0.1 0.2,0.3 0.2,0.4 0.9,4 2.2,7.9 3.6,11.7 0.1,0.3 0.1,0.6 0.1,0.9 0,1.8 0,3.5 0.1,5.3 0,0.1 0.1,0.3 0.1,0.4 0.1,0 0.2,0 0.3,0 0.1,-0.5 0.2,-1.1 0.2,-1.6 0,-0.6 0,-1.3 -0.1,-1.9 -0.1,-1.5 0,-2.9 0.3,-4.3 0.5,-2.6 0.7,-5.2 0.4,-7.8 -0.5,-5 -1.4,-9.9 -2.7,-14.7 C 94.1,88.5 91.1,80 87.7,71.6 84.5,63.9 80.8,56.4 76.2,49.4 70.2,40.2 63,32 54.8,24.6 53.4,23.3 51.9,22 50.1,21.3 c -1.2,-0.5 -1.8,-0.6 -2.2,0 -0.6,0.8 -0.1,1.5 0.3,2.1 1.2,1.6 2.4,3.2 3.6,4.7 3.9,4.8 8,9.4 11.9,14.3 5.8,7.2 10.7,14.9 14.7,23.2 4.3,8.9 7.7,18.2 10.9,27.5 0.8,2.2 1,4.5 0.9,6.8 -0.1,3.4 -1,6.6 -2.9,9.5 -1,1.5 -2,3.1 -3.1,4.6 -2.5,3.4 -4.9,7 -8,9.9 -0.3,0.3 -0.7,0.6 -1,0.9 -0.3,-0.7 -0.6,-1.3 -0.9,-1.9 -0.6,-1.1 -1.3,-2.2 -2,-3.3 -0.8,-1.4 -1.4,-2.9 -1.5,-4.5 -0.1,-0.9 -0.2,-1.9 -0.4,-2.8 -0.3,-1.2 -0.7,-2.4 -0.2,-3.6 0.1,-0.1 0.1,-0.4 0,-0.5 -0.2,-0.2 -0.4,-0.5 -0.6,-0.6 -0.2,-0.1 -0.6,0.1 -0.8,0.3 -0.2,0.3 -0.3,0.7 -0.4,1.1 -0.2,0.6 -0.3,1.3 -0.6,2 -0.8,1.8 -1,3.6 -0.9,5.5 0.3,3.3 2,6 4.4,8.2 0.7,0.7 1.5,1.3 2.8,1.3 -0.4,0.4 -0.7,0.7 -1.1,1 -2.7,2 -5.4,4 -8,6 -2.6,2 -5.1,3.9 -7.6,6 -0.5,0.4 -0.9,0.5 -1.4,0.4 -3.1,-0.1 -6.3,-0.1 -9.4,-0.3 -2.3,-0.2 -4.5,-0.6 -6.6,-1.6 -3.7,-1.6 -6.1,-4.5 -8.1,-7.8 -1.7,-2.8 -3.3,-5.8 -4.9,-8.6 -0.2,-0.4 -0.3,-0.8 -0.3,-1.2 0,-2.8 0.1,-5.7 0.8,-8.4 0.8,-2.7 1.5,-5.5 2.2,-8.2 0.4,-1.4 0.7,-2.7 1.4,-4 0.2,-0.4 0.3,-1 0.4,-1.5 0.1,-0.7 -0.3,-1.1 -1,-1.4 C 30,95.8 29.4,96 29,96.5 c -0.2,0.2 -0.4,0.6 -0.5,0.9 -1.2,2.2 -2.3,4.4 -3.5,6.6 -0.1,-0.3 -0.1,-0.5 0,-0.8 0.4,-1.2 0.8,-2.4 1.2,-3.5 0.9,-2.5 1.9,-4.9 2.7,-7.4 0.5,-1.3 0.8,-2.7 1.6,-3.9 0.6,-0.9 0.4,-1.9 -0.3,-2.4 -0.8,-0.5 -1.8,-0.3 -2.5,0.6 -0.3,0.3 -0.5,0.7 -0.7,1.1 -0.3,0.4 -0.5,0.9 -0.9,1.3 -1.7,1.9 -2.9,4.1 -3.9,6.3 -1.9,4.3 -3.4,8.8 -4.5,13.4 -0.4,1.4 -0.6,2.9 -0.4,4.3 0.1,0.7 0.2,1.4 0.5,2 0.8,1.6 2.3,1.6 3.1,0.1 0.3,-0.6 0.5,-1.3 0.7,-1.9 0.3,-0.8 0.6,-1.7 0.8,-2.5 0.2,0.3 0.1,0.6 0.1,0.8 -0.2,1.6 -0.6,3.1 -0.6,4.7 -0.1,3.3 -0.1,6.7 0,10.1 0,1.2 0.1,2.5 0.3,3.7 0.1,1 0.5,2 0.8,3 0.2,0.6 0.6,0.9 1.3,0.9 0.6,0 1,-0.4 1.3,-0.9 0.2,-0.4 0.4,-0.9 0.5,-1.3 1.1,1.6 2.2,3.2 3.4,4.7 2.3,2.9 5,5 8.6,6.1 4,1.2 8.1,1.3 12.3,0.9 0.9,-0.1 1.8,-0.2 2.9,-0.4 -0.6,0.8 -1.1,1.4 -1.6,2 -1.7,2.2 -3.2,4.6 -3.9,7.3 -0.3,1.2 -0.9,2.2 -1.6,3.2 -0.6,0.7 -1.1,1.5 -1.5,2.2 -0.1,0.2 -0.2,0.8 -0.1,0.9 0.4,0.3 0.7,-0.1 0.9,-0.4 0.4,-0.6 0.9,-1.3 1.3,-1.9 0.8,-1.2 1.8,-2.2 2.9,-3 1.2,-0.9 2.4,-1.9 3.4,-2.9 5,-5.1 10.5,-9.7 16.4,-13.7 2.4,-1.5 4.6,-3.2 6.7,-4.9 z" />

	<path
   id="path849"
   d="m 278.4,169.3 c 2.8,2.8 5.8,5.3 9.1,7.6 2.4,1.7 5.1,3.1 7.9,3.9 3,0.8 6,1.2 9,0.4 1.5,-0.4 3,-0.7 4.6,-0.5 0.1,0 0.3,0 0.4,0 0.3,-0.2 0.6,-0.4 1,-0.6 0,-0.1 -0.1,-0.2 -0.1,-0.3 -0.4,0 -0.7,-0.1 -1.1,-0.1 -1.6,0.1 -3.1,-0.2 -4.7,-0.7 -4.5,-1.3 -8.9,-3 -12.7,-5.8 -4.5,-3.2 -8.5,-6.8 -12.3,-10.8 -0.1,-0.1 -0.1,-0.3 -0.2,-0.5 7.1,0.4 12.4,-2.9 17.4,-7.3 0.6,1.6 1.8,2 3.2,1.2 0.6,-0.4 1.2,-0.8 1.6,-1.4 0.7,-1 1.4,-2.2 2,-3.3 1.2,-2.6 1.9,-5.4 2.5,-8.2 0.6,-3.1 0.9,-6.1 0.4,-9.2 -0.3,-1.6 -0.5,-3.3 -0.8,-5 -0.1,-0.3 -0.2,-0.7 -0.4,-0.9 -0.4,-0.4 -0.9,-0.5 -1.4,-0.1 -0.5,0.3 -0.6,0.8 -0.3,1.2 0.4,0.7 0.2,1.4 0.1,2.1 -0.7,3.7 -1.5,7.3 -2.3,11 -0.3,1.3 -0.6,2.7 -1,4 -0.9,-0.6 -1.3,-0.6 -1.6,-0.1 -0.5,1 -1.4,1.6 -2.1,2.4 -2.5,2.7 -5.5,4.8 -8.7,6.6 -4.2,2.4 -8.7,2.3 -13.2,1.4 -0.4,-0.1 -0.8,-0.3 -1,-0.5 -2.1,-2.3 -4.2,-4.7 -6.5,-7.3 3.4,-1.8 5.2,-4.6 6.3,-8 0.6,-1.9 1.1,-3.8 0.7,-5.8 -0.1,-0.7 -0.1,-1.4 -0.2,-2.2 0,-0.3 0,-0.7 -0.2,-1 -0.1,-0.2 -0.5,-0.3 -0.8,-0.4 -0.1,0.2 -0.3,0.5 -0.2,0.7 0.3,0.8 -0.1,1.5 -0.5,2.2 -0.5,0.8 -1,1.6 -1.3,2.5 -0.4,1 -0.8,2 -1.2,3 -0.7,1.6 -1.4,3.1 -2.6,4.4 -0.7,0.8 -1.3,1.6 -2,2.4 -0.1,-0.1 -0.2,-0.2 -0.3,-0.3 -4.5,-4.9 -9.6,-9.1 -15.1,-12.8 -1.5,-1 -2.9,-2.1 -4.2,-3.2 -4.6,-3.8 -7.1,-8.6 -7.2,-14.7 0,-0.3 0,-0.6 0.1,-0.9 0.5,-2 1,-3.9 1.4,-5.9 1,-6 2.5,-11.9 4.7,-17.5 2.7,-6.9 6.1,-13.5 9.9,-19.9 3.4,-5.7 7.1,-11.3 10.6,-16.9 2.9,-4.6 5.8,-9.1 8.6,-13.8 1.8,-3 3.5,-6 5.8,-8.6 0.1,-0.1 0.2,-0.2 0.2,-0.3 0.2,-0.4 0.3,-0.7 0,-1.1 -0.3,-0.3 -0.7,-0.3 -1,0 -0.4,0.3 -0.7,0.7 -1,1.1 -1.3,1.5 -2.5,3.1 -3.9,4.6 -1.3,1.5 -2.8,2.8 -4.1,4.2 -5.8,6.7 -11,13.9 -15.8,21.3 -4.2,6.5 -7.9,13.3 -11.3,20.3 -3.2,6.7 -5.6,13.7 -6.8,21 -0.1,0.3 -0.2,0.7 -0.4,0.8 -1,0.5 -1.2,1.4 -1.3,2.4 -0.2,3.6 -0.5,7.1 -0.6,10.7 0,1.4 0.2,2.8 0.5,4.2 0.9,4.4 3.2,8 6.4,11.1 0.3,0.3 0.6,0.6 1,0.9 -0.2,0.2 -0.3,0.3 -0.4,0.4 -0.8,0.8 -0.7,1.5 0.3,2 0.3,0.1 0.6,0.2 1,0.3 3.4,0.8 6.6,2.3 9.3,4.5 1.5,1.2 3,2.6 4.3,4 4.6,5 9,10 13.5,15 2.8,3.5 5.9,6.8 9,10.1 z" />

	<path
   id="path851"
   d="m 247.8,173.7 c -0.8,-0.8 -1.7,-1.6 -2.4,-2.5 -1.2,-1.4 -2.7,-2.2 -4.3,-3 -1,-0.5 -2.1,-0.8 -3.2,-0.9 -4.2,-0.6 -7.7,1.1 -10.6,3.9 -1.8,1.8 -3.2,3.9 -4.2,6.3 -0.5,1.3 -0.9,2.6 -1.1,4 -0.2,1.7 -0.2,3.4 -0.3,5.1 0.1,3.1 -0.2,6.2 0.9,9.2 1.5,4.1 4.2,6.9 8.5,8 1,0.3 2,0.3 3.1,0.4 4.9,0.5 8.9,-1.1 11.8,-5.1 0.8,-1.1 1.7,-2.3 2.5,-3.5 3.2,-4.7 3.5,-10 3,-15.3 -0.3,-2.6 -1.9,-4.7 -3.7,-6.6 z" />

	<path
   id="path853"
   d="m 111,187 c -0.1,-1.5 -0.2,-3.1 -0.2,-4.6 -0.1,-1.4 -0.4,-2.8 -0.9,-4.1 -0.9,-2.2 -2.2,-4.1 -3.7,-6 -1.8,-2.3 -4.2,-3.7 -6.9,-4.4 -4.1,-1.1 -7.7,0.2 -10.9,2.8 -1.6,1.3 -3,3 -4.4,4.5 -1.5,1.7 -2.6,3.7 -2.7,6 -0.1,2.1 -0.1,4.3 0.1,6.4 0.2,1.6 0.5,3.3 1.1,4.7 1.4,3.5 3.5,6.5 6.2,9.1 1.8,1.7 3.9,2.8 6.4,3 1.7,0.1 3.4,0.1 5.1,-0.1 4.5,-0.5 7.6,-3 9.5,-7 1,-2.1 1.5,-4.3 1.4,-6.6 -0.2,-1.2 -0.1,-2.4 -0.1,-3.7 0,0 0,0 0,0 z" />

	<path
   id="path855"
   d="m 9.1,154.5 c 0.4,0.7 0.6,1.4 0.8,2 1.3,3.3 2.8,6.4 5.5,8.7 0.5,0.4 0.8,1.2 1.2,1.8 0.4,0.7 0.9,1.1 1.6,0.9 0.6,-0.2 1.1,-1 0.9,-1.7 -0.1,-0.4 -0.3,-0.7 -0.5,-1 -0.2,-0.4 -0.5,-0.7 -0.7,-1.1 -1.1,-2.8 -2.3,-5.6 -3.3,-8.4 -0.5,-1.3 -0.9,-2.6 -1,-4 -0.2,-3.8 -0.3,-7.6 -0.3,-11.3 -0.1,-4.9 -0.1,-9.7 -0.1,-14.6 0,-0.3 0,-0.6 0.1,-0.9 0.3,-4.5 0.8,-8.9 0.9,-13.4 0.2,-10 0.2,-19.9 -1.5,-29.8 -1,-6 -2.4,-12 -4.8,-17.6 C 7.7,63.7 7.5,63.3 7.1,62.9 7.1,64.4 7,65.8 7,67.2 V 163 c 0.7,-2.8 1.4,-5.6 2.1,-8.5 z" />

	<path
   id="path857"
   d="m 323.3,103 c 0,-0.5 0,-1 0,-1.4 -0.1,0 -0.2,0 -0.3,0 -2.8,7.1 -3.6,14.5 -4.4,21.8 -0.1,-1.1 -0.3,-2.4 -0.4,-3.7 -0.3,-2.3 -1.7,-4 -2.9,-5.8 -0.4,-0.6 -1,-0.7 -1.6,-0.5 -0.6,0.3 -0.9,0.9 -0.8,1.6 0.1,0.5 0.2,1.1 0.3,1.6 0.5,2.6 0.9,5.2 1.4,7.9 0.1,0.6 0.4,1.1 0.8,1.6 0.7,0.8 1.8,0.7 2.4,-0.2 0.2,-0.3 0.3,-0.6 0.6,-1 0,0.7 0,1.1 0,1.5 0,7.1 0,14.3 0,21.4 0,4.1 0.6,8.1 1.9,11.9 0.8,2.2 0.6,4.1 -0.4,6.1 -2.2,4.4 -4.3,8.9 -6.4,13.4 -0.2,0.3 -0.3,0.7 -0.5,1.1 1.9,0.2 3.4,-0.6 4.9,-1.5 0.6,-0.4 1.1,-0.9 1.4,-1.6 0.9,-2.3 2,-4.6 2.9,-6.9 0.2,-0.5 0.3,-1.2 0.3,-1.7 0,-10 -0.1,-19.9 0.1,-29.9 0.1,-12.1 0.4,-23.9 0.7,-35.7 z" />

	<path
   id="path859"
   d="m 211.9,312.6 c 0.2,-0.2 0.4,-0.3 0.6,-0.5 0.3,-0.4 0.4,-0.9 0.8,-1.2 1.7,-1.3 2.7,-3.2 3.7,-5.1 0.4,-0.8 0.9,-1.3 1.7,-1.6 1.2,0.7 1.7,0.6 2.6,-0.5 0.1,-0.1 0.2,-0.3 0.3,-0.4 0.9,-1.1 1.8,-2.3 2.9,-3.3 5.3,-4.5 10.3,-9.4 14.7,-14.8 1.6,-1.9 3.1,-4 4.2,-6.3 0.7,-1.5 1.6,-2.9 2.4,-4.4 0.1,-0.3 0.3,-0.5 0.5,-0.8 0.2,-0.4 0.5,-0.9 -0.1,-1.2 -0.6,-0.3 -0.8,0.3 -1,0.7 -0.8,1.1 -1.5,2.3 -2.4,3.3 -1.5,1.7 -3.1,3.2 -4.6,4.9 -4.2,4.7 -8.4,9.3 -13.1,13.4 -0.3,0.2 -0.6,0.5 -0.8,0.7 -0.3,-0.5 -0.5,-0.9 -0.8,-1.3 -0.8,-1 -2.1,-1 -2.9,0 -0.4,0.4 -0.6,1.1 -0.7,1.6 -0.1,0.7 0,1.4 0,2.1 0,1.5 -0.2,1.8 -1.7,2.4 -0.1,-0.5 -0.2,-0.9 -0.3,-1.4 -0.1,-0.4 -0.4,-0.9 -0.8,-0.8 -0.3,0.1 -0.6,0.5 -0.8,0.9 -0.1,0.2 -0.2,0.6 -0.2,0.9 -0.1,0.6 -0.1,1.1 -0.2,1.7 -0.1,0.5 -0.2,1.1 -0.5,1.4 -0.9,0.8 -1.9,1.5 -3.1,2.4 0,-1.4 0.1,-2.5 0,-3.6 -0.1,-0.6 -0.3,-1.3 -0.6,-1.8 -0.5,-0.8 -1.4,-0.8 -1.9,0 -0.3,0.6 -0.6,1.3 -0.6,1.9 -0.1,2.2 -0.5,4.3 -1.2,6.4 -0.3,1 -0.6,2 -0.7,3 -0.1,0.6 -0.1,1.2 -0.1,1.9 1.9,-0.3 2.2,-0.7 4.8,-6.4 0.6,0 1.2,-0.1 1.7,-0.1 -0.6,1.9 -1.2,3.8 -1.8,5.7 -0.2,0.1 -0.1,0.1 0,0.2 z" />

	<path
   id="path861"
   d="m 148.4,207.6 c -1.2,0.1 -2.5,0.2 -3.6,1 -0.5,0.3 -0.7,0.7 -0.4,1.3 0.4,0.9 0.7,1.2 1.8,1.3 0.7,0.1 1.4,0.2 2.1,0.3 0.2,0 0.3,0 0.5,-0.1 0.5,-0.1 1,-0.2 1.5,-0.2 3.3,0 6.5,0 9.8,0 2,0 3.9,-0.1 5.9,-0.5 1.1,-0.2 2.3,-0.2 3.4,-0.1 1.4,0.1 1.8,-0.3 1.5,-1.6 0,-0.1 0,-0.2 0,-0.2 2.2,-0.2 4.3,-0.2 6.3,-0.5 1.1,-0.1 2.2,-0.3 3.3,0 0.1,0 0.3,0 0.5,0 0,-0.7 -0.4,-0.8 -0.9,-0.9 -0.6,-0.1 -1.2,-0.1 -1.8,-0.2 -3.9,-0.6 -7.8,-1.2 -11.7,-1.9 -3.3,-0.6 -6.6,-1.2 -9.8,-1.9 0.2,-0.2 0.4,-0.2 0.6,-0.2 3.2,0.1 6.4,0.2 9.5,0.2 1.7,0 3.3,-0.2 5,-0.4 0.7,-0.1 1.4,-0.2 2.1,0.3 0.4,0.3 0.9,0.2 1.1,-0.2 0.2,-0.3 0.3,-0.8 0.2,-1.2 -0.1,-0.6 -0.7,-0.8 -1.3,-0.9 -1.3,-0.1 -2.6,-0.4 -3.8,-0.4 -2.9,-0.1 -5.8,-0.2 -8.8,-0.2 -1.8,0 -3.7,0.3 -5.5,0.4 -0.7,0 -1.3,0.2 -1.6,0.9 -0.2,0.7 0.5,0.9 0.9,1.4 -0.7,0 -1.4,-0.1 -2.1,0 -1.1,0.1 -1.6,0.5 -1.6,1.1 0,0.6 0.4,1 1.5,1.3 2.3,0.5 4.7,1 7,1.5 0,0.1 0,0.1 0,0.2 -0.5,0 -1,0 -1.5,0 -3.1,0.1 -6.6,0.2 -10.1,0.4 z" />

	<path
   id="path863"
   d="m 203.1,223.7 c -0.8,-1.1 -1.9,-2.1 -2.9,-3.1 -3.3,-3.2 -7.1,-5.6 -11.1,-7.9 -2.7,-1.6 -5.5,-2.7 -8.6,-3.2 -1,-0.1 -1.8,0.1 -2.8,1 0.7,0.4 1.1,0.6 1.6,0.9 0.9,0.5 1.9,0.8 2.8,1.4 2.2,1.3 4.4,2.7 6.5,4.1 0.5,0.3 1.1,0.7 1.5,1.1 0.7,0.6 1.3,1.2 2,1.8 2,1.6 4.1,3.1 6.2,4.7 4.8,3.7 9.4,7.5 12.9,12.5 1.4,2 3.1,4 3.3,6.6 0,0.2 0.3,0.5 0.5,0.5 0.2,0 0.6,-0.1 0.6,-0.3 0.1,-0.4 0.3,-0.9 0.2,-1.4 -0.5,-2.2 -1.1,-4.4 -2.5,-6.3 -0.2,-0.2 -0.5,-0.5 -0.4,-0.8 0.1,-0.9 -0.4,-1.5 -0.9,-2 -1.4,-1.6 -2.7,-3.3 -4.3,-4.8 -1.6,-1.7 -3.3,-3 -4.6,-4.8 z" />

	<path
   id="path865"
   d="m 36.6,297.9 c 0.4,-2.8 1.2,-5.6 1.8,-8.4 0.1,-0.7 0.2,-1.4 0.1,-2 0,-0.6 -0.4,-0.9 -0.9,-1.1 -0.5,-0.2 -0.9,0 -1.3,0.4 -0.3,0.3 -0.5,0.6 -0.6,1 -1.1,2 -2,4.2 -2.5,6.5 -0.6,2.7 -1.2,5.4 -1.7,8.2 -0.6,3.3 -1,6.6 -1.5,9.8 1.4,1.1 2.8,2.1 4.2,3.1 0.8,-5.9 1.5,-11.7 2.4,-17.5 z" />

	<path
   id="path867"
   d="m 323.8,56.9 c -1.1,-2.9 -2.3,-5.7 -3.4,-8.5 -0.1,-0.1 -0.2,-0.2 -0.5,-0.5 0,2.7 0,5.1 0,7.6 0,4.6 -0.3,9.2 -1,13.7 -0.5,3 -1.2,6.1 -1.7,9.1 -0.2,1.3 -0.3,2.6 -0.4,4 0,0.4 0.3,0.8 0.5,1.5 0.5,-0.4 0.9,-0.7 1.2,-1 1.1,-1.1 1.5,-2.5 2,-3.8 2.3,-6.2 3.4,-12.7 3.7,-19.3 0.1,-0.9 0,-1.9 -0.4,-2.8 z" />

	<path
   id="path869"
   d="m 52.8,81.5 c 0.3,0.8 1.1,1.2 2.1,1 0.6,-0.1 1.2,-0.2 1.8,-0.1 2.3,0.5 4.6,0.4 6.9,0.5 3.3,0.2 6.6,0.4 9.9,0.7 1.1,0.1 2.1,0.3 3.2,0.4 1.2,0.1 2.2,-0.4 2.5,-1.4 0.2,-0.9 -0.3,-1.8 -1.3,-2.4 -0.4,-0.2 -0.8,-0.3 -1.2,-0.5 -4.2,-1.5 -8.5,-2 -13.9,-2 -2.3,-0.2 -5.5,0.4 -8.7,1.7 -1.2,0.4 -1.6,1.2 -1.3,2.1 z" />

	<path
   id="path871"
   d="m 249.7,272 c 0,0.5 0.2,0.9 0.7,0.9 0.3,0 0.8,-0.2 0.9,-0.5 0.3,-0.5 0.4,-1.1 0.5,-1.7 0.1,-0.7 0.2,-1.4 0.3,-2.2 0.1,-1.1 0.2,-2.1 0.4,-3.2 0.1,-0.5 0.1,-1 0.3,-1.3 0.8,-1.3 1,-2.7 1,-4.2 0,-1.8 -0.2,-3.5 -0.8,-5.3 -0.7,-2 -1.8,-3.7 -3.3,-5.1 -1.2,-1.1 -2.3,-2.2 -3.5,-3.2 -1,-0.9 -2.1,-1.6 -3.2,-2.4 -0.4,-0.3 -1,-0.5 -1.5,-0.6 -0.9,-0.1 -1.5,0.2 -1.8,0.8 -0.3,0.7 0.1,1.3 0.5,1.7 0.7,0.7 1.4,1.3 2.1,1.9 2.4,2.1 4.7,4.1 7.1,6.2 0.3,0.3 0.7,0.5 0.8,0.8 0.3,1.2 0.7,2.4 0.2,3.6 -0.1,0 -0.2,0.1 -0.2,0.1 -1.5,-0.1 -2,0.4 -1.9,1.9 0,0.3 0.1,0.7 0.2,1 0.2,1.2 0.4,2.5 0.7,3.7 0.3,1.1 0.1,2 -0.8,2.8 -0.2,0.1 -0.2,0.4 -0.4,0.7 0.1,0.1 0.1,0.1 0.2,0.2 0.4,-0.2 0.8,-0.5 1.2,-0.7 0.5,1 0.6,2.1 0.4,3.1 0,0.3 0,0.7 -0.1,1 z" />

	<path
   id="path873"
   d="m 259.6,83.5 c 0.5,-1.4 -0.5,-2.6 -2,-2.6 -0.9,0 -1.5,0.5 -1.9,1.2 -0.6,1.1 -1.2,2.2 -1.8,3.3 -2.3,4.7 -3.9,9.8 -5.4,14.8 -0.4,1.4 -0.8,2.7 -1,4.1 -0.3,2.2 -0.4,4.4 -1.4,6.4 -0.2,0.5 -0.2,0.9 0.3,1.2 0.5,0.3 0.9,0 1.2,-0.4 0.3,-0.7 0.6,-1.4 0.9,-2.1 0.4,-1 0.7,-1.9 1.1,-2.9 1.1,-2.6 2.4,-5 3.4,-7.6 1.9,-5 3.6,-10.2 6.5,-14.8 0,-0.3 0.1,-0.5 0.1,-0.6 z" />

	<path
   id="path875"
   d="m 318.8,233.4 c -3.3,-3.9 -6.6,-7.8 -10.5,-11.1 -0.4,-0.4 -0.8,-0.8 -1.3,-1 -0.3,-0.1 -0.9,-0.1 -1.2,0.1 -0.4,0.2 -0.3,0.7 -0.2,1.2 0.1,0.3 0.3,0.5 0.5,0.8 1.3,1.8 2.5,3.6 3.9,5.3 4.6,5.7 8.8,11.6 12.4,18 0.3,0.5 0.6,0.9 0.9,1.4 0.1,0 0.2,0 0.3,0 0.3,-1.9 0.6,-3.7 0.9,-5.6 0.2,-0.9 -0.1,-1.7 -0.6,-2.4 -1.7,-2.3 -3.3,-4.5 -5.1,-6.7 z" />

	<path
   id="path877"
   d="m 116.6,239.3 c 0.2,-0.1 0.5,-0.1 0.7,-0.3 1,-0.7 2,-1.3 2.9,-2.1 2.8,-2.6 5.4,-5.3 8.2,-7.8 3.3,-3 6.7,-5.9 10.2,-8.7 2,-1.6 3.9,-3.2 6.5,-3.9 0.2,-0.1 0.4,-0.2 0.5,-0.3 0.1,-0.1 0.1,-0.4 0.1,-0.6 0,-0.1 -0.3,-0.2 -0.4,-0.2 -0.2,0 -0.5,0.1 -0.7,0.2 -0.7,0.3 -1.4,0.6 -2.2,0.8 -3.9,0.8 -7.2,2.7 -10.3,5 -4,2.9 -7.6,6.3 -11,9.9 -1.5,1.6 -2.9,3.3 -4.2,5 -0.5,0.6 -0.7,1.4 -1,2.2 -0.2,0.4 0.1,0.7 0.7,0.8 z" />

	<path
   id="path879"
   d="m 80.6,95.6 c 0.2,-0.9 0,-1.7 -0.4,-2.5 -0.7,-1.3 -1.8,-2.3 -3.1,-3 -2.8,-1.6 -5.8,-2.4 -9.6,-2.5 -1.6,-0.2 -3.4,0.7 -5.3,1.4 -0.8,0.3 -1.1,1.1 -0.9,1.8 0.2,0.7 0.7,1 1.6,1.1 0.5,0 1.1,0.2 1.6,0.3 0.6,0.1 1.2,0.3 1.9,0.4 4.1,0.6 8.1,1.5 11.3,4.4 1.1,0.8 2.6,0.1 2.9,-1.4 z" />

	<path
   id="path881"
   d="m 254.2,120.1 c 0.1,0.9 0.4,1.3 1.1,1.3 0.6,0 0.9,-0.5 1,-1.3 0.1,-0.9 0.3,-1.8 0.5,-2.6 0.1,-0.4 0.2,-0.8 0.3,-1.3 0.5,-2.3 0.9,-4.7 1.7,-7 1.3,-3.7 2.8,-7.4 4.2,-11 0,-0.1 0.1,-0.2 0.1,-0.2 0.3,-0.8 0.1,-1.4 -0.4,-1.8 -0.5,-0.4 -1.4,-0.4 -1.9,0.1 -0.6,0.6 -1.2,1.2 -1.6,2 -1.7,3.2 -3.2,6.5 -4.2,9.9 -0.7,2.2 -1.2,4.5 -1.3,6.8 0.1,0.9 0.1,1.7 0.2,2.6 0,0.7 0.2,1.6 0.3,2.5 z" />

	<path
   id="path883"
   d="m 103.5,244 c -4.1,-0.6 -8,-0.4 -11.9,0.9 -3.1,1.1 -5.9,2.6 -8.3,4.8 -0.7,0.7 -1.3,1.4 -1.3,2.6 0.4,-0.1 0.6,-0.1 0.8,-0.2 3.5,-1.1 6.9,-2.2 10.4,-3.3 2.5,-0.8 5,-1.2 7.6,-1.2 1.4,0 2.7,-0.2 4.1,-0.4 1,-0.2 1.6,-0.8 1.5,-1.6 0,-0.8 -0.7,-1.4 -1.7,-1.5 -0.4,0 -0.8,0 -1.2,-0.1 z" />

	<path
   id="path885"
   d="m 284.9,298.5 c -0.5,-0.4 -1.2,-0.3 -1.7,0.1 -0.4,0.4 -0.5,1 -0.1,1.7 0.1,0.3 0.3,0.5 0.5,0.7 0.6,0.9 1.3,1.7 1.9,2.6 2.8,3.9 5.5,7.8 7.5,12.2 0.1,0.2 0.2,0.4 0.4,0.6 1.6,-0.5 3.2,-0.8 4.2,-2.5 -2.6,-5 -5.8,-9.5 -9.8,-13.4 -0.9,-0.8 -2,-1.4 -2.9,-2 z" />

	<path
   id="path887"
   d="m 19,85 c -0.5,1.2 -0.7,2.5 -1,3.7 0.1,0 0.1,0 0.2,0 0,0.1 0,0.3 0,0.4 0,1.4 0.6,2.2 1.6,2.3 0.9,0.1 1.6,-0.5 2,-1.8 0.5,-1.5 1,-3.1 1.6,-4.6 1.3,-2.7 2.7,-5.3 4.1,-8 0.5,-0.9 0.9,-1.9 1.3,-2.9 0.2,-0.4 0.5,-0.8 0.7,-1.2 0.2,-0.2 0.4,-0.5 0.5,-0.7 0.3,-0.7 -0.2,-1.3 -0.9,-1.1 -0.3,0.1 -0.6,0.3 -0.8,0.5 -0.4,0.3 -0.7,0.8 -1.2,1 -1.8,0.8 -2.9,2.2 -3.9,3.8 -1.7,2.7 -3,5.6 -4.2,8.6 z" />

	<path
   id="path889"
   d="m 118.9,170.4 c -0.2,0.5 -0.5,1 -0.9,1.4 -0.5,0.5 -0.6,1.1 -0.4,1.7 0.1,0.5 0.3,1 0.6,1.4 0.9,1.4 1.9,2.9 2.9,4.3 0.2,0.3 0.4,0.5 0.7,0.8 0.7,0.6 1.4,0.6 2,0.2 0.6,-0.4 1,-1.2 0.7,-2 -0.1,-0.4 -0.4,-0.9 -0.6,-1.2 -1.3,-1.7 -2.6,-3.3 -3.9,-5 0.2,-0.1 0.6,-0.3 0.9,-0.5 1.3,1.2 2.5,2.4 3.8,3.7 0.5,-0.4 1,-0.6 1.3,-1.1 0.4,-0.9 -0.3,-1.6 -0.6,-2.4 1,-0.7 1.2,-1.1 0.7,-1.9 -0.7,-1 -1.4,-2 -2.2,-2.8 -1.2,-1.2 -2.6,-2.3 -3.9,-3.3 -0.4,-0.3 -0.9,-0.5 -1.4,-0.6 -0.7,-0.1 -1,0.2 -0.8,0.9 0.2,0.6 0.4,1.1 0.8,1.6 1,1.1 2.1,2.1 3.3,3.3 -1.5,-0.3 -2.4,0.3 -3,1.5 z" />

	<path
   id="path891"
   d="m 324,194 c 0.2,-1.5 0.3,-3 0.4,-4.6 -0.5,0.2 -0.8,0.3 -1.1,0.4 -1.5,0.7 -3.1,1.4 -4.6,2 -1.7,0.8 -3.5,1.3 -5.5,1.2 -1.4,-0.1 -2.9,-0.2 -4.3,-0.3 -1,-0.1 -1.6,0.2 -2,0.8 -0.4,0.7 -0.2,1.6 0.4,2.3 0.3,0.3 0.6,0.6 0.9,0.7 0.6,0.3 1.2,0.6 1.9,0.7 2,0.4 4,0.4 6,0.1 2.7,-0.4 5,-1.6 7.4,-2.8 0.3,0.1 0.5,-0.2 0.5,-0.5 z" />

	<path
   id="path893"
   d="m 278.1,213.4 c 0.3,0.1 0.9,0 1.2,-0.2 0.3,-0.2 0.5,-0.7 0.6,-1.1 0.2,-0.5 0.4,-1 0.7,-1.5 0.5,-1 1.1,-1.9 1.5,-3 0.9,-2.4 1.8,-4.8 2.6,-7.3 0.4,-1.2 0.5,-2.5 0.8,-3.5 -0.1,-1 -0.2,-1.8 -0.4,-2.5 -0.2,-1 -1,-1.6 -1.9,-1.6 -0.8,0 -1.6,0.6 -1.8,1.6 -0.1,0.4 -0.2,0.8 -0.2,1.3 0,1.7 -0.3,3.2 -0.9,4.8 -1.5,3.8 -2,7.9 -2.9,11.8 0,0.1 -0.1,0.3 0,0.4 0.2,0.2 0.4,0.7 0.7,0.8 z" />

	<path
   id="path895"
   d="m 305.8,298.1 c -1.4,-0.5 -3,-0.7 -4.3,-1.6 -0.2,-0.2 -0.6,-0.2 -0.9,-0.2 -1.7,-0.1 -3.4,-0.2 -5.1,-0.3 -0.3,0 -0.6,0 -1,0 0.3,1 1,1.5 1.6,2.1 2.9,2.4 5.7,4.9 8.2,7.8 0.2,0.2 0.2,0.5 0.4,0.8 2.2,-2.3 4.2,-4.4 6.4,-6.6 -1.9,-0.8 -3.6,-1.4 -5.3,-2 z" />

	<path
   id="path897"
   d="m 17.9,39.5 c 0,-0.3 0.2,-0.6 0.2,-0.9 0.1,-0.6 -0.1,-1.1 -0.7,-1.4 -0.5,-0.3 -1.1,-0.3 -1.6,0.1 -0.4,0.3 -0.7,0.6 -0.9,1.1 -0.4,0.8 -0.7,1.7 -0.9,2.5 -0.6,2.6 -0.7,5.3 -0.8,7.6 0.1,1.8 0.1,3.2 0.2,4.7 0.2,1.5 0.5,3.1 0.9,4.5 0.5,1.5 1.2,2.9 1.1,4.6 0,0.2 0.3,0.7 0.6,0.7 0.2,0 0.7,-0.3 0.7,-0.5 0.1,-0.5 0.1,-1.1 0.1,-1.6 -0.1,-1.3 -0.4,-2.6 -0.4,-3.8 0.1,-3.9 0.2,-7.8 0.5,-11.7 0.3,-2.1 0.7,-4 1,-5.9 z" />

	<path
   id="path899"
   d="m 7,200.8 c 4.1,-2.3 8.2,-4.7 12.3,-7 0.5,-0.3 1,-0.6 1.5,-1 0.7,-0.7 0.7,-1.1 -0.2,-1.5 -0.6,-0.2 -1.3,-0.3 -2,-0.3 -0.6,0 -1.2,0.3 -1.7,0.5 -3.4,1.3 -6.6,2.9 -9.8,4.7 v 4.6 z" />

	<path
   id="path901"
   d="m 286.1,216.5 c 0.9,-2.7 1.4,-5.6 1.7,-8.5 -0.2,-0.8 -0.3,-1.7 -0.7,-2.4 -0.4,-0.9 -1.4,-0.9 -1.9,-0.1 -0.3,0.4 -0.4,0.9 -0.6,1.4 -1.5,4.9 -2.9,9.8 -4.3,14.7 -0.2,0.8 -0.5,1.6 -0.6,2.4 -0.2,0.8 0.2,1.5 0.8,1.7 0.6,0.2 1.2,0.1 1.7,-0.6 0.5,-0.6 1,-1.3 1.3,-2 1,-2.2 1.9,-4.3 2.6,-6.6 z" />

	<path
   id="path903"
   d="m 22.3,176.6 c 0.1,0.1 0.5,-0.2 0.6,-0.3 0.1,-0.2 -0.1,-0.5 -0.2,-0.6 -0.2,-0.2 -0.6,-0.4 -0.8,-0.6 -0.9,-0.9 -1.6,-1.9 -2.6,-2.7 -2.8,-2.4 -5.2,-5.1 -6.7,-8.5 -0.3,-0.7 -0.9,-1.2 -1.7,-1.1 -0.8,0.1 -1.5,0.5 -1.7,1.3 -0.2,0.4 -0.2,0.9 -0.3,1.5 0.2,0.6 0.4,1.3 0.7,2 0.4,0.9 1,1.7 1.5,2.5 1.6,2.3 3.6,4.2 6,5.8 1.1,0.7 2.3,1.3 3.6,1 0.5,-0.3 1,-0.6 1.6,-0.3 z" />

	<path
   id="path905"
   d="m 28,298.2 c 1.1,-2.7 2.2,-5.5 3.2,-8.3 0.2,-0.4 0.3,-0.8 0.3,-1.2 0,-0.3 -0.2,-0.8 -0.4,-0.9 -0.3,-0.1 -0.7,0 -1.1,0.1 -0.2,0.1 -0.4,0.4 -0.6,0.7 -0.8,1.2 -1.5,2.5 -2.2,3.8 -2,3.9 -3.7,7.9 -5.3,12 0.8,0.9 1.6,1.8 2.5,2.7 1.2,-3 2.4,-5.9 3.6,-8.9 z" />

	<path
   id="path907"
   d="m 262,130.3 c 0.5,0.2 0.8,-0.1 1,-0.5 0.1,-0.1 0.1,-0.2 0.2,-0.3 0.2,-1 0.5,-1.9 1.1,-2.7 0.2,-0.3 0.2,-0.6 0.3,-1 0.2,-1.4 0.3,-2.7 0.6,-4.1 0.5,-2.1 1.2,-4.1 1.8,-6.2 0.2,-0.7 0.3,-1.3 0.5,-2 0,0 -0.1,0 -0.1,0 0,-0.2 0,-0.3 0,-0.5 -0.1,-1 -0.6,-1.7 -1.5,-1.9 -0.8,-0.2 -1.6,0.2 -2.1,1.1 -0.2,0.3 -0.3,0.5 -0.4,0.8 -0.5,1.3 -1,2.5 -1.5,3.8 -0.8,2.1 -1.3,4.4 -1.2,6.7 0.1,1.3 0.1,2.6 0.8,3.7 0.4,0.7 0.7,1.3 0.3,2 -0.3,0.4 -0.3,0.9 0.2,1.1 z" />

	<path
   id="path909"
   d="m 278.4,321.9 c 0,-0.3 0,-0.5 -0.1,-0.7 -0.4,-1.4 -0.7,-2.8 -1.1,-4.2 -0.6,-2.2 -1.3,-4.4 -1.5,-6.6 0,-0.5 -0.3,-1.1 -0.5,-1.6 -0.3,-0.6 -0.9,-0.6 -1.2,-0.1 -0.2,0.2 -0.3,0.5 -0.4,0.8 -0.2,1 -0.5,1.9 -0.7,2.9 -0.5,4.1 -1.2,8.2 -2.4,12.2 0,0.1 0,0.3 0,0.5 0,0 0.1,0 0.1,0 2.8,-1 5.3,-2.1 7.8,-3.2 z" />

	<path
   id="path911"
   d="m 54.6,206.8 c -1.5,-2.7 -3.1,-5.4 -4.6,-8.2 -0.3,-0.5 -0.5,-1 -0.9,-1.4 -0.3,-0.4 -0.6,-0.8 -1,-1.1 -0.3,-0.2 -0.8,-0.3 -1,-0.4 -1.3,0 -2.2,0.9 -2.1,2.1 0.1,0.8 0.3,1.6 0.7,2.3 1.9,3.5 4,6.8 6.3,10 0.6,0.9 1.6,1.1 2.5,1.5 0.2,0.1 0.7,-0.2 0.8,-0.4 0.2,-0.4 0.4,-1 0.3,-1.4 -0.2,-1.1 -0.5,-2.1 -1,-3 z" />

	<path
   id="path913"
   d="m 40.3,309.7 c 0.1,-1.1 0.1,-2.1 0.1,-3.2 0,-0.9 -0.4,-1.4 -1.1,-1.6 -0.7,-0.2 -1.4,0.1 -1.8,0.9 -0.3,0.5 -0.5,1.1 -0.6,1.7 -0.3,1.9 -0.5,3.8 -0.7,5.7 -0.1,1.1 -0.1,2.2 -0.2,3.2 1.1,0.7 2.3,1.3 3.5,2 0.4,-2.8 0.6,-5.7 0.8,-8.7 z" />

	<path
   id="path915"
   d="m 17.8,201.5 c 0.4,-0.4 0.8,-0.9 1.1,-1.4 0.3,-0.4 0.5,-0.8 0.2,-1.3 -0.4,-0.5 -0.9,-0.4 -1.4,-0.2 -0.6,0.3 -1.3,0.7 -1.9,1.1 -3.2,2.6 -6.1,5.6 -8.7,8.7 v 4.4 c 3.4,-3.9 7,-7.6 10.7,-11.3 z" />

	<path
   id="path917"
   d="m 308.3,141.9 c 0.6,0.2 1.1,0.1 1.5,-0.3 0.3,-0.3 0.6,-0.6 0.8,-1 0.4,-0.8 0.8,-1.7 1,-2.6 0.9,-3.5 1.1,-7.1 0.8,-10.7 -0.1,-1.9 -1.1,-3.2 -2,-4.7 0,0 -0.2,0 -0.2,0 0.2,0.8 0.2,0.8 -0.3,1.6 -0.3,0.4 -0.5,0.9 -0.6,1.4 -0.2,1 -0.4,2 -0.4,3.1 -0.1,2.9 -0.4,5.8 -1,8.7 -0.2,1.1 -0.3,2.2 -0.3,3.3 -0.1,0.5 0.2,1 0.7,1.2 z" />

	<path
   id="path919"
   d="m 50.5,221 c 0.4,-0.5 0.4,-1.1 0.1,-1.7 -1.1,-2.3 -2.3,-4.6 -3.4,-6.9 -0.4,-0.9 -0.7,-1.8 -1,-2.8 -0.1,-0.3 -0.2,-0.6 -0.4,-1 -0.5,-1.1 -1.3,-1.7 -2.2,-1.5 -1,0.2 -1.6,1 -1.6,2.6 0.1,0.4 0.1,1.2 0.4,1.8 0.8,2 1.5,4 2.5,5.9 0.8,1.8 2.2,3.2 4.2,3.7 0.5,0.3 1,0.4 1.4,-0.1 z" />

	<path
   id="path921"
   d="m 221.7,168.9 c 0.3,-0.4 0.5,-0.9 0.1,-1.4 -0.4,-0.5 -1,-0.3 -1.4,-0.1 -0.2,0.1 -0.5,0.2 -0.7,0.3 -0.7,0.6 -1.5,1.2 -2,1.9 -1.2,1.6 -2.2,3.3 -3.3,4.9 -0.7,1.2 -0.6,1.7 0.6,2.6 -0.6,1.6 0.6,3 2.7,2.5 0.3,-0.1 0.6,-0.3 0.9,-0.4 1.5,-0.6 2.6,-1.9 3.9,-2.9 0.4,-0.3 0.5,-0.8 0.2,-1.3 -0.3,-0.5 -0.7,-0.8 -1.3,-0.6 -1.3,0.4 -2.7,0.4 -3.9,1.2 -0.1,0.1 -0.3,0.1 -0.6,0.1 0.4,-0.6 0.7,-1 1,-1.4 1.3,-1.8 2.6,-3.6 3.8,-5.4 z" />

	<path
   id="path923"
   d="m 274.9,200.1 c 0.5,0.3 1.1,0.1 1.6,-0.5 0.1,-0.1 0.2,-0.3 0.3,-0.4 0.4,-0.6 0.7,-1.2 1.2,-1.7 2.1,-2.4 2.8,-5.3 3.3,-7.9 0,-2 -0.8,-3.2 -2.1,-3.4 -1.2,-0.1 -2.4,0.9 -2.7,2.4 -0.2,1.2 -0.5,2.4 -0.7,3.5 -0.3,1.6 -0.7,3.1 -0.5,4.7 0.1,0.6 0,1.2 -0.4,1.7 -0.6,0.8 -0.5,1.3 0,1.6 z" />

	<path
   id="path925"
   d="M 74.4,99.5 C 74.1,99 73.6,98.7 73.2,98.4 72.8,98.1 72.3,98 71.8,97.8 c -0.8,0 -1.5,0.3 -2,0.9 -0.4,0.4 -0.6,0.9 -0.3,1.4 1.4,2.9 3,5.8 5.2,8.2 0.3,0.3 0.7,0.6 1,0.8 1.6,0.8 3,-0.2 2.8,-1.9 -0.1,-0.7 -0.2,-1.4 -0.6,-2 -1.1,-2 -2.3,-3.9 -3.5,-5.7 z" />

	<path
   id="path927"
   d="m 59.4,71.9 c 3.5,-1.7 7.2,-2.8 11.2,-2.7 0.9,0 1.7,-0.4 2.6,-0.7 0.5,-0.2 0.9,-0.5 1.4,-0.9 -0.3,-0.2 -0.7,-0.3 -0.9,-0.6 -0.6,-0.8 -1.6,-1 -2.5,-1.1 -3.9,-0.5 -7.6,0.2 -11.1,2.1 -0.8,0.4 -1.6,1.1 -2.3,1.7 -0.6,0.6 -0.7,1.3 -0.3,1.8 0.5,0.6 1.1,0.8 1.9,0.4 z" />

	<path
   id="path929"
   d="m 46.2,230.2 c 0.9,0.3 1.6,-0.1 1.8,-1.2 -0.3,-1 -0.5,-2.2 -1.1,-3.1 -1.3,-2.2 -2.7,-4.3 -4.1,-6.4 -0.6,-0.9 -1.4,-1.2 -2.2,-0.9 -0.9,0.3 -1.5,1.1 -1.6,2.1 -0.1,0.8 0.2,1.5 0.7,2.2 1,1.6 2.1,3.1 3.1,4.7 0.8,1.2 1.9,2.1 3.4,2.6 z" />

	<path
   id="path931"
   d="m 320.9,209.6 c -2.6,-0.9 -5.1,-1.9 -7.7,-2.7 -1.1,-0.3 -2.3,-0.3 -3.4,-0.3 -0.4,0 -0.8,0.3 -1.3,0.5 0.2,0.3 0.3,0.5 0.4,0.7 0.8,1 1.9,1.6 3,2.2 3.1,1.7 6.3,3.3 9.4,4.9 0.1,0 0.2,0 0.4,0 0,-1.3 0,-2.6 0.1,-3.9 0.1,-0.8 -0.2,-1.2 -0.9,-1.4 z" />

	<path
   id="path933"
   d="m 82.6,201.6 c 0.6,0.1 1.1,-0.5 0.8,-1.1 -0.7,-1.1 -1.3,-2.3 -2.1,-3.3 -1.1,-1.6 -2.5,-2.9 -2.9,-5 0,-0.2 -0.2,-0.4 -0.3,-0.6 -0.6,-1 -1.6,-1.2 -2.5,-0.6 -0.9,0.6 -1.4,1.4 -1.4,2.4 0,0.1 0,0.2 0,0.3 0.4,2.5 2,4.2 3.6,6 1.3,1.4 3,1.6 4.8,1.9 z" />

	<path
   id="path935"
   d="m 286,232.4 c 0.2,-0.2 0.6,-0.3 0.6,-0.5 0.2,-0.6 0.5,-1 1,-1.4 0.3,-0.2 0.5,-0.5 0.6,-0.8 0.9,-2.1 1.8,-4.1 2.7,-6.3 0.3,-0.7 0.3,-1.5 0.4,-2.3 0,0 0,0 -0.1,0 0,-0.4 0,-0.8 -0.1,-1.2 -0.1,-0.4 -0.1,-0.8 -0.2,-1.3 -0.3,-1 -0.9,-1.7 -1.6,-1.6 -0.7,0 -1.2,0.6 -1.5,1.6 -0.1,0.4 -0.2,0.8 -0.2,1.1 -0.1,1.8 -0.6,3.5 -1.3,5.2 -0.3,0.6 -0.5,1.2 -0.6,1.8 -0.2,0.9 -0.4,1.9 -0.3,2.8 0,0.7 0.4,1.3 0.2,2 0,0.3 0.3,0.6 0.4,0.9 z" />

	<path
   id="path937"
   d="m 324.9,179.7 c -1.1,0.9 -2.3,1.7 -3.4,2.6 -2,1.6 -3.9,3.2 -6.6,3.6 -1,0.1 -1.5,0.8 -1.5,1.7 0,0.8 0.6,1.4 1.6,1.6 1.4,0.3 2.8,0.1 4.1,-0.5 2.1,-1 3.8,-2.5 5.3,-4.2 0.2,-0.2 0.4,-0.4 0.4,-0.7 v -4.1 z" />

	<path
   id="path939"
   d="m 217.2,163.1 c -2.4,2.3 -4.2,5 -5.7,7.9 -0.3,0.6 -0.7,1.3 -0.8,2 -0.1,0.9 -0.1,1.8 0,2.7 0.1,0.6 0.5,1 1.2,1 0.7,0 1.1,-0.4 1.2,-1 0.5,-2.9 2.2,-5.2 3.8,-7.5 1.1,-1.7 2.2,-3.3 3.2,-5 0.4,-0.6 0.6,-1.2 1,-2.1 -0.5,0.1 -0.8,0 -0.9,0.1 -1.1,0.6 -2.2,1.1 -3,1.9 z" />

	<path
   id="path941"
   d="m 54.1,201.3 c 0.8,-0.5 0.9,-1.1 0.9,-1.8 0.2,-2.6 -0.3,-5.1 -1.2,-7.6 -0.5,-1.5 -1.1,-2.9 -1.7,-4.3 -0.4,-0.9 -1.3,-1.3 -2.1,-1 -0.8,0.2 -1.3,1.1 -1.1,2.1 0.1,0.7 0.3,1.4 0.6,2.1 0.7,1.9 1.4,3.8 2.2,5.7 0.3,0.8 0.7,1.6 1.1,2.3 0.3,0.6 1,0.9 0.8,1.8 0,0.2 0.3,0.4 0.5,0.7 z" />

	<path
   id="path943"
   d="m 316.4,219.3 c -0.6,-0.3 -1.3,-0.4 -2,-0.5 -0.9,0 -1.3,0.6 -0.9,1.4 0.2,0.5 0.5,1 0.9,1.4 0.7,0.9 1.5,1.7 2.2,2.6 1.6,2 3.3,4 4.9,5.9 0.1,0 0.2,0 0.2,0 0,-2.1 0,-4.3 0,-6.4 0,-0.3 -0.2,-0.7 -0.4,-0.9 -1.5,-1.3 -3,-2.6 -4.9,-3.5 z" />

	<path
   id="path945"
   d="m 71.5,263.5 c 2.4,-2.4 4.7,-4.9 7,-7.4 0.2,-0.3 0.6,-0.7 0.5,-0.9 -0.2,-0.4 -0.6,-0.8 -1,-0.9 -1,-0.3 -2,0 -3,0.4 -2.4,1.1 -3.8,3.1 -4.9,5.7 1.1,-1.1 1.9,-2 2.8,-2.9 0.1,0.1 0.2,0.2 0.3,0.2 -0.9,1.2 -1.8,2.4 -2.6,3.6 -0.4,0.6 -0.7,1.4 -1,2.1 -0.1,0.4 0,0.9 -0.1,1.4 -0.1,0.4 -0.4,0.7 -0.5,1.1 0.7,-0.9 1.7,-1.6 2.5,-2.4 z" />

	<path
   id="path947"
   d="m 216.4,239.5 c 0.2,0.7 0.7,0.8 1.2,0.9 1.6,0.3 3.2,0.6 4.8,0.7 3.5,0.3 7,0.4 10.5,0.6 1.2,0.1 2.4,0.1 3.5,0.6 0.1,0 0.2,-0.1 0.5,-0.1 -0.2,-0.2 -0.2,-0.5 -0.4,-0.6 -1.7,-0.6 -3.4,-1.2 -5.1,-1.8 -2,-0.6 -4.1,-0.5 -6.1,-0.6 -2.3,-0.1 -4.6,-0.3 -6.9,-0.4 -0.8,-0.1 -1.5,-0.1 -2,0.7 z" />

	<path
   id="path949"
   d="m 257,196.5 c 0.7,-3.2 0.6,-6.3 -0.5,-9.4 -0.1,-0.3 -0.3,-0.6 -0.6,-0.8 -0.6,-0.6 -1.2,-0.5 -1.6,0.2 -0.3,0.5 -0.4,1.1 -0.4,1.7 0.1,1.6 0.4,3.2 0.5,4.7 0.1,2.1 0,4.2 0,6.5 1.5,-0.7 2.2,-1.4 2.6,-2.9 z" />

	<path
   id="path951"
   d="m 319.9,214.6 c -1,-0.5 -2,-1.2 -3,-1.7 -0.8,-0.4 -1.5,-0.1 -1.8,0.4 -0.4,0.6 -0.1,1.2 0.2,1.6 0.5,0.7 1,1.4 1.6,2 1.5,1.4 3.1,2.8 4.6,4.2 0.1,-0.1 0.2,-0.1 0.3,-0.2 0,-0.9 -0.1,-1.8 0,-2.7 0.3,-1.7 -0.4,-2.8 -1.9,-3.6 z" />

	<path
   id="path953"
   d="m 73.6,197.3 c -0.1,-0.5 -0.1,-1 -0.3,-1.5 -0.3,-0.7 -0.8,-1.1 -1.6,-1.1 -0.8,0 -1.3,0.4 -1.6,1.1 -0.7,2.4 -0.2,4.9 2.2,6.2 0.9,0.5 1.8,0.7 2.6,0 0.2,-0.2 0.5,-0.2 0.9,-0.3 -0.7,-1.1 -1.4,-2 -2,-3.1 0,-0.3 -0.1,-0.8 -0.2,-1.3 z" />

	<path
   id="path955"
   d="m 260.4,191.6 c -0.8,0 -1.4,0.7 -1.6,1.7 -0.1,0.7 -0.1,1.4 -0.1,1.9 0.1,1.6 0,3 0.7,4.3 0.1,0.1 0,0.3 0.1,0.5 0.1,0.7 0.4,0.9 1,0.6 0.9,-0.6 1.6,-1.3 1.7,-2.4 0.1,-0.8 0.2,-1.6 0.2,-2.4 0,-0.9 0,-1.7 -0.2,-2.6 -0.2,-1 -1,-1.6 -1.8,-1.6 z" />

	<path
   id="path957"
   d="m 41.3,159 c -0.6,0.2 -1.1,0.6 -1.7,0.9 -0.9,0.4 -1.7,0.7 -2.6,1.1 -1.8,0.8 -3.7,1.6 -5.5,2.3 -0.2,0.1 -0.4,0.1 -0.5,0.2 -0.3,0.3 -0.6,0.7 -0.6,1 0,0.5 0.4,0.8 0.9,0.9 0.2,0 0.4,0.1 0.6,0.1 0.4,0 0.8,0 1.1,-0.1 3.5,-1 6.3,-3.1 8.9,-5.6 0.1,-0.1 0.1,-0.5 0.1,-0.8 -0.1,0 -0.4,-0.1 -0.7,0 z" />

	<path
   id="path959"
   d="m 263.2,137.9 c 0.4,0.2 0.9,0.3 1.3,0.3 0.8,-0.1 1.4,-0.7 1.7,-1.4 0.8,-1.5 1.6,-3 2.2,-4.6 0.4,-1.1 0.5,-2.4 0.8,-3.8 -0.1,-0.1 -0.3,-0.5 -0.5,-0.5 -0.2,0 -0.5,0.2 -0.6,0.4 -0.2,0.4 -0.3,0.9 -0.6,1.3 -0.6,1 -1.3,1.9 -1.9,2.9 -0.9,1.4 -1.4,3.1 -2.6,4.2 -0.4,0.4 -0.3,1 0.2,1.2 z" />

	<path
   id="path961"
   d="m 38,233.1 c -0.7,0.2 -1.2,1 -1.2,2 0.2,0.3 0.4,0.9 0.8,1.4 0.9,1.1 2,2.1 3.3,2.8 0.7,0.4 1.3,0.4 1.8,0 0.5,-0.4 0.7,-1 0.2,-1.7 -0.9,-1.4 -1.8,-2.8 -2.8,-4.1 -0.5,-0.7 -1.3,-0.6 -2.1,-0.4 z" />

	<path
   id="path963"
   d="m 303.1,308.5 c -1.7,-1.9 -3.1,-3.7 -4.7,-5.4 -0.2,-0.3 -0.8,-0.4 -1.1,-0.3 -0.3,0.1 -0.6,0.6 -0.7,1 -0.1,0.5 0,1 0.2,1.5 0.8,2.2 2.5,3.7 3.8,5.4 0.9,-0.8 1.6,-1.5 2.5,-2.2 z" />

	<path
   id="path965"
   d="m 139.6,211.8 c -0.6,0.1 -1.1,0.2 -1.4,0.8 0.2,0.6 0.7,0.7 1.2,0.8 0.6,0.1 1.3,0.1 1.9,0.2 1.7,0.1 3.4,0.3 5.1,0.4 0.9,0.1 1.7,0.1 2.6,0.1 0.7,0.1 1.4,0.2 2.1,0.2 0.2,0 0.5,-0.1 0.8,-0.2 -0.1,-0.3 -0.1,-0.6 -0.3,-0.8 -0.1,-0.1 -0.4,-0.2 -0.6,-0.2 -1.6,-0.4 -3.1,-0.8 -4.7,-1.2 -2.1,-0.3 -4.4,-0.4 -6.7,-0.1 z" />

	<path
   id="path967"
   d="m 17.7,185.3 c 0.5,0.2 1.1,0.3 1.6,0.3 0.5,0 1.1,-0.1 1.8,-0.2 -0.5,-0.6 -1,-1.2 -1.5,-1.7 -1.7,-1.5 -3.5,-3 -5.3,-4.5 -0.4,-0.3 -0.8,-0.5 -1.3,-0.2 -0.5,0.3 -0.7,0.7 -0.5,1.2 0.1,0.5 0.3,1.1 0.6,1.5 1.3,1.5 2.9,2.7 4.6,3.6 z" />

	<path
   id="path969"
   d="m 279.6,318.4 c 0.1,1 0.3,1.9 0.4,3 0.9,-0.3 1.6,-0.6 2.4,-1 -0.4,-3.2 -1.2,-6.1 -1.9,-9.1 0,0 0,-0.1 0,-0.1 -0.2,-0.2 -0.4,-0.5 -0.6,-0.5 -0.2,0 -0.6,0.3 -0.6,0.5 -0.1,1 -0.3,2 -0.2,2.9 0,1.5 0.3,2.9 0.5,4.3 z" />

	<path
   id="path971"
   d="m 27.4,170.3 c -0.6,0.3 -0.6,0.9 0,1.3 0.5,0.3 1.2,0.4 1.6,0.6 0.6,-0.1 1,-0.1 1.4,-0.2 0.9,-0.3 1.8,-0.7 2.6,-1.2 0.8,-0.4 1.5,-1 2.2,-1.6 0.4,-0.3 0.7,-0.8 0.3,-1.4 -0.3,-0.5 -0.8,-0.6 -1.5,-0.3 -0.2,0.1 -0.4,0.3 -0.6,0.4 -1.3,0.9 -2.6,1.5 -4.1,1.7 -0.7,0.2 -1.3,0.4 -1.9,0.7 z" />

	<path
   id="path973"
   d="m 164.7,198.1 c 1.3,-0.2 2.6,-0.4 4.1,0.2 0,-0.4 0.1,-0.7 0,-0.8 -0.3,-0.2 -0.6,-0.5 -1,-0.6 -0.7,-0.1 -1.4,-0.2 -2.2,-0.3 -1.7,-0.1 -3.4,-0.2 -5.1,-0.3 -0.4,0 -0.8,0.1 -1.1,0.2 -0.3,0.1 -0.5,0.5 -0.8,0.7 0.2,0.2 0.5,0.5 0.7,0.6 0.2,0.1 0.5,0.2 0.7,0.2 1.6,0.2 3.1,0.2 4.7,0.1 z" />

	<path
   id="path975"
   d="m 46.4,13.1 c 0.6,1 1.1,1.8 1.8,2.6 0.4,0.4 1,0.8 1.6,1 1.2,0.3 1.9,-0.5 1.5,-1.7 -0.4,-1.2 -1.1,-2.2 -2,-3.2 -1,0.3 -1.9,0.8 -2.9,1.3 z" />

	<path
   id="path977"
   d="m 314.3,200.8 c 0.1,-0.1 0.2,-0.3 0.5,-0.7 -1.6,0 -2.9,0 -4.2,0 -0.6,0 -1.2,0.3 -1.9,0.4 -0.6,0.2 -1.1,0.5 -1,1.2 0.1,0.6 0.7,0.7 1.3,0.8 0.1,0 0.2,0 0.3,0 1.8,-0.2 3.5,-0.7 5,-1.7 z" />

	<path
   id="path979"
   d="m 75.2,261.7 c -0.2,0.1 -0.4,0.3 -0.5,0.4 -1.1,1.4 -1.8,3 -1.7,4.9 0,0.5 0.1,1 0.8,1.4 0.2,-0.4 0.5,-0.9 0.6,-1.3 0.4,-1.1 0.7,-2.2 1.1,-3.3 0.2,-0.5 0.4,-0.9 0.6,-1.4 0.1,-0.2 -0.1,-0.6 -0.2,-0.8 -0.1,-0.1 -0.5,0 -0.7,0.1 z" />

	<path
   id="path981"
   d="m 116.1,178.3 c 0,0.4 0,0.8 0,1.3 0,0.3 0.1,0.7 0.1,1 0,0.4 0,0.8 0.4,0.8 0.3,0 0.7,-0.1 0.9,-0.3 0.6,-0.6 0.9,-1.4 0.9,-2.3 0,-0.1 0,-0.3 0,-0.4 -0.1,-0.7 -0.5,-1.2 -1.1,-1.2 -0.7,0 -1.1,0.4 -1.2,1.1 z" />

	<path
   id="path983"
   d="m 291.9,230.6 c -0.3,0 -0.7,0.3 -0.9,0.6 -0.6,1.1 -0.2,2.3 0.8,3.2 1.1,-0.8 1.4,-2.3 0.8,-3.3 -0.1,-0.2 -0.4,-0.5 -0.7,-0.5 z" />

	<path
   id="path985"
   d="m 76.7,272.8 c 0.7,-1.6 0.7,-2.5 -0.1,-3.1 -0.6,0.9 -0.3,1.9 0.1,3.1 z" />

</g>
        <path
           id="path989"
           d="m 324.9,264.3 c 0,33.8 -27.2,61.2 -60.9,61.2 H 67.9 C 34.3,325.5 7,298.1 7,264.3 V 67.2 C 7,33.4 34.3,6.1 67.9,6.1 H 264 c 33.6,0 60.9,27.4 60.9,61.2 z"
           stroke-miterlimit="10"
           stroke-width="5"
           stroke="#000000"
           fill="none" />
      </g>
    </g>
  </g>
</svg>
