<svg xmlns="http://www.w3.org/2000/svg" width="470.75" height="470.75" viewBox="-1 -1 470.75 470.75"><g transform="translate(-3758.911 -2985.774)"><circle cx="3993.286" cy="3220.149" r="234.375" fill="#fff" stroke="#000" stroke-width="2" stroke-linejoin="round" paint-order="markers fill stroke"/><path d="M4016.1 3288.95c-.5-.3-1.1-.6-1.7-.8-1.3-.5-2.6-.9-3.9-1.4-4-1.4-8.1-2.5-12.4-2.8-3-.2-5.9-.2-8.9-.1-2.8.1-5.7.3-8.5.5-.5 0-1 .2-1.5.4-.9.4-1.4 1.1-1.5 2.1 0 .9.5 1.7 1.3 2.1.4.2.9.4 1.4.5 2.1.5 4.3.9 6.4 1.3 1.9.4 3.8.9 5.7 1.6-.3.4-.5.7-.7 1-.5 1 .2 2 1.3 1.8.5-.1 1-.3 1.5-.6.6-.4 1.2-.8 1.9-1.3.1.1.1.2.2.2-.3.5-.7.9-.8 1.4-.4 1.1.2 1.9 1.4 1.8.5-.1 1.1-.3 1.5-.6.5-.3 1-.8 1.5-1.2.4-.4.8-.5 1.3-.3 1.4.4 2.8.7 4.1 1.1 1.2.4 2.3 1.1 3.5 1.6 2.7 1.1 5 .8 6.6-1.8.5-.8 1-1.7 1.4-2.6.8-1.7.5-2.9-1.1-3.9zm-57.8 63.3c-.1.4.1.9.3 1.4 1.3 3.3 3.3 6.2 6.2 8.4 4.7 3.5 10.1 5.2 15.9 5.8 2.3.2 4.5.2 6.8.4 3.9.2 7.8.1 11.7-.5 6.1-.9 11.8-2.8 17.2-5.8.5-.3 1-.7 1.3-1.2l3.6-4.5c1-1.3 1.9-2.6 2.9-4 .6-.8.9-1.8.9-2.9-1-.1-1.8-.3-2.7-.4-6.9-.9-13.4-3.1-19.7-6.2-.6-.3-1.2-.6-1.9-.8-2.5-1-5-2.1-7.5-3.1-.1-.1-.3-.1-.5-.1-.7 4.3-.4 8.8-2.7 13-2.3-4.3-1.9-8.8-1.8-13.3-.6 0-1.3-.2-1.7 0-.7.4-1.2 1.1-1.8 1.7-.3-.6-.7-.4-1.1-.2-4.4 2.1-9.1 3.6-13.4 5.9-.2.1-.5.2-.7.3-3.8 1.5-7.6 2.7-11.6 3.4.2.9.5 1.8.3 2.7zm-2.4-2.2h-1v.2c.3 0 .7 0 1-.1v-.1z" fill="none"/><path d="M3890.1 3062.95c-2-1.3-3.6-2.9-5.6-4l-3.6 2.1c.2.3.3.5.4.6-.3.2-.5.4-.7.6 1 2.1 1.8 4.1 2.8 6 .3.5.6 1.1 1 1.5.5.6 1.1.8 1.8.8.8 0 1.3-.5 1.3-1.3 0-.5-.1-1.1-.2-1.6l-.3-1.2c.8.5 1.8 1 2 1.8.3 1.1.9 1.6 1.9 1.9.2.1.4.3.6.5.9 1 1.9 1.9 2.8 2.9 2.6 3.1 5.2 6.3 7.8 9.5 1.7 2.2 3.5 4.4 5.1 6.7 5.2 7.7 9.6 15.9 13.6 24.3 5 10.5 9.9 21 14.8 31.5 3.6 7.7 7 15.4 9.6 23.5.5 1.6 1.1 3.1 1.7 4.6.3.7.6 1.4 1.1 2 1.1 1.3 2.9 1.2 3.8-.2l.4-.8c.7 1.4 1.6 2.7 1.7 4.2.1 1.5.2 2.9.3 4.4.1.9.5 1.3 1.3 1.1.5-.1 1.1-.4 1.4-.8.4-.5.6-1.2.8-1.9.2-.6.4-1.3.6-1.9 1.2.7 1.7 1.6 1.5 2.8-.1.7 0 1.5.2 2.2.1.5.6.9 1 1.3.2.2.8.2.9 0 .6-.7 1.9-.8 2-2 0-.2.5-.4.7-.4.5 0 1 0 1.4.1 1.5.6 3 .9 4.7.8h3.1c9.6 0 19.3.1 28.9 0 3.2 0 6.4-.2 9.6-1.1 1.2-.4 2.4-.6 3.6-.4 1.3.2 2.7-.1 3.9.4.3.1.9 0 1.3-.1 1.2-.3 1.8-1.2 1.7-2.7-.1-2 .5-3.8 1.4-5.5.1-.2.3-.5.6-.9.2.6.4 1 .5 1.3.2.9.3 1.9.6 2.8.2.8.6 1.5 1.7 1.9.5-1.9 1-3.6 1.3-5.4.3-1.7.5-3.5.7-5.3.6 1.1 1.1 2.1 1.7 3.1.2.3.4.5.7.7.4.3.8.5 1.4.8-1.4-2.9-1.6-5.8-1.7-8.7h.3l2.4 3c.9 1.1 2.2 1.1 3.1.2.3-.3.5-.6.7-.9 1.6-2.7 3.3-5.4 4.8-8.2 4.5-8.5 8.9-17 13.3-25.5 4.7-9 9.4-18 15.1-26.4 4.3-6.3 9-12.3 14.4-17.7 4.6-4.7 9.8-8.8 14.9-12.9 3-2.4 6.4-3.9 10.2-4.6 1.5-.3 3.1-.5 4.8-.3-.4.4-.8.8-1.1 1.2-.3.4-.5.8-.3 1.3.3.5.7.7 1.3.8.2 0 .5-.1.7-.2.8-.5 1.7-.9 2.4-1.4.6-.4 1.2-1 1.8-1.4.8.3 1.5.6 2.3.9-.5.5-1 .8-1.4 1.2-.4.4-.6.9-.3 1.5s.8.8 1.4.8c.3 0 .5-.1.7-.2 1.7-.6 3-1.7 4.4-2.6-.1-.2-.2-.3-.2-.3-2-2.1-3.9-4.2-5.9-6.3-.3-.3-.8-.5-1.2-.6-1.2-.2-2.5-.2-3.7-.3-.5-2-1.2-2.5-3.3-2.6h-.5c-.9.1-1.7-.2-2.4-.7-.9-.6-1.8-1.2-2.9-1.9-1.2.7-2.6 1.4-3.9 2.1-11.9 7.4-22.7 16.3-32 26.8-7.4 8.3-13.9 17.3-19.5 26.9-6.8 11.7-13.2 23.6-19.3 35.7-.4.8-.9 1.7-1.2 2.6-.3.8-.7 1.3-1.2 1.9-.6.7-1.4 1.3-1.6 2.1-.6 1.9-1.9 3.2-3.1 4.7-.3.4-.6.8-.9 1.3-.4.7-.9 1.4-1.4 2.2-.7-1.1-1.6-.8-2.6-.7-1.4.2-2.2 1-2.9 2.1-.7 1.1-.9 2.3-.9 3.6v2.9c-.3 0-.5.1-.8.1h-7.1c-3 .1-5.9.1-8.9.2-2.6.1-5.1.4-7.7.4-8.4 0-16.8-.1-25.1-.3-1.1 0-2.2-.3-3.2-.4-.2-1-.3-1.8-.6-2.6-.3-1.2-.8-1.5-2-1.5-1.8-2.1-2.2-2.2-3.8-1.1-.5-.7-.5-.7-.9-2.1-1.3-5.5-3.1-10.9-5.4-16.1-4.4-10.1-9.5-19.8-14.7-29.5-6-10.7-12-21.1-18.6-31.1-7-10.7-14-21.3-21-32-.2-.3-.4-.6-.7-1-2.8.3-5.5.7-8.4 1 .7 1.2 1.3 2.3 2 3.4zm43.8 285.3c1.1.5 2.2 1.1 3.3 1.4 1.4.4 2.9.6 4.4.7 2.3.2 4.7.5 7-.1 1.1-.2 2 0 2.6.9.2.2.4.6.6.6.6.2.7.6.9 1.2 1.2 3.9 3.1 7.4 6.5 9.8.2.2.4.3.6.5 2.8 3 6.1 5.4 9.7 7.4 3.8 2.2 7.8 3.9 12.2 4.1 4.9.3 9.8.1 14.6-.8.5-.1 1.2-.3 1.6-.1 2.1.7 4.1.3 6.2-.4.4-.1.9-.2 1.2-.1 1.7.5 3.2.2 4.8-.5 3.8-1.7 7.1-4.1 10.2-6.9 2.9-2.5 5.3-5.5 7.6-8.6 1.6-2.1 2.8-4.4 3.4-7l.3-.9c1.9-.1 3.7-.2 5.5-.4 1.9-.2 3.8-.5 5.6-1.5 1-.5 2-1.1 3.1-.9.1-.9.1-.9.7-1.4.6-.6 1.3-1.2 1.8-1.8 5-5.8 8-12.6 9.6-20 .2-.9-.1-1.9-.1-2.9 0-.4-.1-.8-.1-1.3.1-1.9.5-3.8.1-5.6-.1-.7.1-1.3.7-1.8.5.2 1.1.3 1.7.5 2 .4 3.9 1.1 5.9 1.1 1.7 0 3.4-.5 5.2-.3 0 0 0-.1.2-.2-.6-.9-1.3-1.8-1.9-2.8-.7-1.1-1.7-1.6-2.8-1.9-3.5-1-7-1.9-10.6-2.8-.3-.1-.7-.1-1-.1-.5 0-1 .2-1.5.2-1.3.1-2.3 1-2.3 2.3 0 1.6-.2 3.1-.1 4.7.2 3 0 6-.1 9 0 .8-.2 1.5-.5 2.2-2.9 7-7.8 12.4-13.4 17.4-.4.3-.8.4-1.3.3-2.2-.4-4.4-.8-6.6-1.1-3.7-.5-7.3-.8-11-1.3-5.9-.7-11.6-1.9-17.2-3.8-3.1-1-6.2-2.3-9.4-3.4-.1.8-.7.5-1.2.4-1.9-.3-3.7-.2-5.4.7-8.8 4.1-18.1 6.2-27.6 7.4-2.9.4-5.8.7-8.7 1-1.6.2-3.2.2-4.7.3-.7 0-1.5-.2-2.2-.2-1 0-1.8-.2-2.4-1-.2-.2-.4-.4-.6-.5-2.9-2.9-5.5-6-7.4-9.7-2.4-4.8-3.8-9.8-4.4-15.1-.1-1-.2-2.1-.5-3-.4-1-.6-1.9-.6-3 0-1.4-1-2.4-2.4-2.4-.3 0-.7.1-.9-.1-.7-.4-1.3-.1-2 .1-3.1.8-6.1 1.7-9.2 2.5-.7.2-1.4.3-2.1.7-1.8.9-2.3 2.8-3.5 4.4.6.1 1 .1 1.5 0 .8-.1 1.6-.1 2.4.2.7.2 1.5.3 2.3.2 1.9-.3 3.7-.8 5.5-1.2l1.2-.3c.6.7.6 1.3.7 1.9 0 1.8.1 3.7.2 5.5 0 .4.1.8-.1 1.1-.5 1.2-.4 2.5 0 3.7 2.1 8.2 5.3 15.8 11.8 21.6.4.3.2.6-.2.8-3.9-3.7-7.4-7.5-10.6-11.8-2.7-3.6-5.1-7.5-8.2-10.9-.3-.3-.4-.7-.7-1.1l-.9-.9c-.9.9-1.1 1.3-.7 2.5.4 1.3 1 2.6 1.6 3.8 3.3 6.1 7.3 11.7 12.3 16.7 3.2 3.2 6.6 6.2 10.7 8.4 1.3.7 2.7 1.3 4.2 1.6 1.4.3 2.9.4 4 1.7.2-.8-.3-.9-.7-1.2-.7-.5-1.5-1-2.2-1.6-.6-.5-1.2-1-1.8-1.4-1.9-1.6-3.9-3.1-5.8-4.7l-.6-.6c.7-.6 1.4-.4 2-.1zm35.7-2.1c.2-.1.5-.2.7-.3 4.3-2.3 9-3.8 13.4-5.9.5-.2.8-.4 1.1.2.6-.6 1.1-1.3 1.8-1.7.4-.2 1.1 0 1.7 0-.1 4.5-.5 9 1.8 13.3 2.2-4.2 2-8.7 2.7-13 .2 0 .4.1.5.1 2.5 1 5 2.1 7.5 3.1.6.3 1.3.5 1.9.8 6.2 3.1 12.7 5.3 19.7 6.2.9.1 1.8.2 2.7.4.1 1.1-.3 2-.9 2.9-.9 1.3-1.9 2.7-2.9 4-1.2 1.5-2.4 3.1-3.6 4.5-.4.5-.8.9-1.3 1.2-5.4 3-11.2 4.9-17.2 5.8-3.9.6-7.8.7-11.7.5-2.3-.1-4.6-.1-6.8-.4-5.8-.6-11.1-2.4-15.9-5.8-2.9-2.1-4.9-5-6.2-8.4-.2-.4-.4-1-.3-1.4.3-.9 0-1.8-.3-2.7 4-.7 7.8-1.9 11.6-3.4zm-14.7 3.9h1v.2c-.3 0-.7 0-1 .1v-.3z"/><path d="M4024.2 3284.45c-.4-.2-.8-.4-1.1-.6-1.9-1.8-4.2-2.7-6.6-3.3-1.1-.3-2.2-.6-3.3-1-2.6-.8-5.2-1.4-7.9-1.6-3.5-.2-7-.3-10.6-.4v.1c-2.1 0-4.3-.1-6.4 0-1.8.1-3.5.2-5.2.6-1.7.4-3.4.5-5.1.7-1.7.2-3.3.3-5 .6-1.6.3-3.1.8-4.7 1.2-1.6.4-2.9 1.6-4.6 1.8-.3 0-.5.3-.8.4-2.2 1.6-3.4 3.9-4.3 6.4-.1.2-.1.5-.1.8 0 3.9.5 7.7 1.9 11.4.3.8.8 1.5 1.4 2.1 5.3 5 11.3 8.6 18.2 10.8 2.7.9 5.4 1.5 8.2 1.2 1.2-.1 2.4 0 3.6-.1.8 0 1.6-.1 2.3-.2 3.3-.7 6.5-1.5 9.8-2.3 2.4-.6 4.8-1.1 6.9-2.6 1.4-1 2.9-1.7 4.4-2.6.4-.2.7-.4 1.1-.7 2.4-2 4.9-4.1 6.7-6.8.6-.9 1.3-1.8 1.7-2.9.7-2.1 1.3-4.3 1.8-6.5.2-1.1.2-2.3.1-3.5-.3-1.1-1.1-2.2-2.4-3zm-6.9 8.3c-.4.9-.9 1.8-1.4 2.6-1.6 2.6-3.9 2.9-6.6 1.8-1.2-.5-2.3-1.1-3.5-1.6-1.3-.5-2.7-.7-4.1-1.1-.5-.1-.9 0-1.3.3-.5.4-1 .9-1.5 1.2-.5.3-1 .5-1.5.6-1.2.1-1.8-.7-1.4-1.8.2-.5.6-.9.8-1.4-.1-.1-.1-.2-.2-.2-.6.4-1.2.9-1.9 1.3-.5.3-1 .6-1.5.6-1.1.1-1.8-.8-1.3-1.8.2-.3.4-.6.7-1-1.9-.7-3.7-1.2-5.7-1.6-2.1-.4-4.3-.9-6.4-1.3-.5-.1-1-.3-1.4-.5-.8-.4-1.3-1.1-1.3-2.1s.6-1.7 1.5-2.1c.5-.2 1-.4 1.5-.4 2.8-.2 5.7-.5 8.5-.5 3-.1 5.9-.1 8.9.1 4.3.3 8.4 1.4 12.4 2.8 1.3.4 2.6.9 3.9 1.4.6.2 1.2.5 1.7.8 1.5 1.1 1.8 2.3 1.1 3.9zm-114.3-109c6.1-4.8 10.6-10.9 14.6-17.4 1.1-1.8 2.1-3.7 3.1-5.6.1.1.2.3.2.4.9 4 2.2 7.9 3.6 11.7.1.3.1.6.1.9 0 1.8 0 3.5.1 5.3 0 .1.1.3.1.4h.3c.1-.5.2-1.1.2-1.6 0-.6 0-1.3-.1-1.9-.1-1.5 0-2.9.3-4.3.5-2.6.7-5.2.4-7.8-.5-5-1.4-9.9-2.7-14.7-2.3-8.7-5.3-17.2-8.7-25.6-3.2-7.7-6.9-15.2-11.5-22.2-6-9.2-13.2-17.4-21.4-24.8-1.4-1.3-2.9-2.6-4.7-3.3-1.2-.5-1.8-.6-2.2 0-.6.8-.1 1.5.3 2.1 1.2 1.6 2.4 3.2 3.6 4.7 3.9 4.8 8 9.4 11.9 14.3 5.8 7.2 10.7 14.9 14.7 23.2 4.3 8.9 7.7 18.2 10.9 27.5.8 2.2 1 4.5.9 6.8-.1 3.4-1 6.6-2.9 9.5-1 1.5-2 3.1-3.1 4.6-2.5 3.4-4.9 7-8 9.9-.3.3-.7.6-1 .9-.3-.7-.6-1.3-.9-1.9-.6-1.1-1.3-2.2-2-3.3-.8-1.4-1.4-2.9-1.5-4.5-.1-.9-.2-1.9-.4-2.8-.3-1.2-.7-2.4-.2-3.6.1-.1.1-.4 0-.5-.2-.2-.4-.5-.6-.6-.2-.1-.6.1-.8.3-.2.3-.3.7-.4 1.1-.2.6-.3 1.3-.6 2-.8 1.8-1 3.6-.9 5.5.3 3.3 2 6 4.4 8.2.7.7 1.5 1.3 2.8 1.3-.4.4-.7.7-1.1 1-2.7 2-5.4 4-8 6-2.6 2-5.1 3.9-7.6 6-.5.4-.9.5-1.4.4-3.1-.1-6.3-.1-9.4-.3-2.3-.2-4.5-.6-6.6-1.6-3.7-1.6-6.1-4.5-8.1-7.8-1.7-2.8-3.3-5.8-4.9-8.6-.2-.4-.3-.8-.3-1.2 0-2.8.1-5.7.8-8.4.8-2.7 1.5-5.5 2.2-8.2.4-1.4.7-2.7 1.4-4 .2-.4.3-1 .4-1.5.1-.7-.3-1.1-1-1.4-.5-.6-1.1-.4-1.5.1-.2.2-.4.6-.5.9-1.2 2.2-2.3 4.4-3.5 6.6-.1-.3-.1-.5 0-.8.4-1.2.8-2.4 1.2-3.5.9-2.5 1.9-4.9 2.7-7.4.5-1.3.8-2.7 1.6-3.9.6-.9.4-1.9-.3-2.4-.8-.5-1.8-.3-2.5.6-.3.3-.5.7-.7 1.1-.3.4-.5.9-.9 1.3-1.7 1.9-2.9 4.1-3.9 6.3-1.9 4.3-3.4 8.8-4.5 13.4-.4 1.4-.6 2.9-.4 4.3.1.7.2 1.4.5 2 .8 1.6 2.3 1.6 3.1.1.3-.6.5-1.3.7-1.9.3-.8.6-1.7.8-2.5.2.3.1.6.1.8-.2 1.6-.6 3.1-.6 4.7-.1 3.3-.1 6.7 0 10.1 0 1.2.1 2.5.3 3.7.1 1 .5 2 .8 3 .2.6.6.9 1.3.9.6 0 1-.4 1.3-.9.2-.4.4-.9.5-1.3 1.1 1.6 2.2 3.2 3.4 4.7 2.3 2.9 5 5 8.6 6.1 4 1.2 8.1 1.3 12.3.9.9-.1 1.8-.2 2.9-.4-.6.8-1.1 1.4-1.6 2-1.7 2.2-3.2 4.6-3.9 7.3-.3 1.2-.9 2.2-1.6 3.2-.6.7-1.1 1.5-1.5 2.2-.1.2-.2.8-.1.9.4.3.7-.1.9-.4.4-.6.9-1.3 1.3-1.9.8-1.2 1.8-2.2 2.9-3 1.2-.9 2.4-1.9 3.4-2.9 5-5.1 10.5-9.7 16.4-13.7 2.4-1.5 4.6-3.2 6.7-4.9zm202.2 37.5c2.8 2.8 5.8 5.3 9.1 7.6 2.4 1.7 5.1 3.1 7.9 3.9 3 .8 6 1.2 9 .4 1.5-.4 3-.7 4.6-.5h.4c.3-.2.6-.4 1-.6 0-.1-.1-.2-.1-.3-.4 0-.7-.1-1.1-.1-1.6.1-3.1-.2-4.7-.7-4.5-1.3-8.9-3-12.7-5.8-4.5-3.2-8.5-6.8-12.3-10.8-.1-.1-.1-.3-.2-.5 7.1.4 12.4-2.9 17.4-7.3.6 1.6 1.8 2 3.2 1.2.6-.4 1.2-.8 1.6-1.4.7-1 1.4-2.2 2-3.3 1.2-2.6 1.9-5.4 2.5-8.2.6-3.1.9-6.1.4-9.2-.3-1.6-.5-3.3-.8-5-.1-.3-.2-.7-.4-.9-.4-.4-.9-.5-1.4-.1-.5.3-.6.8-.3 1.2.4.7.2 1.4.1 2.1-.7 3.7-1.5 7.3-2.3 11-.3 1.3-.6 2.7-1 4-.9-.6-1.3-.6-1.6-.1-.5 1-1.4 1.6-2.1 2.4-2.5 2.7-5.5 4.8-8.7 6.6-4.2 2.4-8.7 2.3-13.2 1.4-.4-.1-.8-.3-1-.5-2.1-2.3-4.2-4.7-6.5-7.3 3.4-1.8 5.2-4.6 6.3-8 .6-1.9 1.1-3.8.7-5.8-.1-.7-.1-1.4-.2-2.2 0-.3 0-.7-.2-1-.1-.2-.5-.3-.8-.4-.1.2-.3.5-.2.7.3.8-.1 1.5-.5 2.2-.5.8-1 1.6-1.3 2.5l-1.2 3c-.7 1.6-1.4 3.1-2.6 4.4-.7.8-1.3 1.6-2 2.4l-.3-.3c-4.5-4.9-9.6-9.1-15.1-12.8-1.5-1-2.9-2.1-4.2-3.2-4.6-3.8-7.1-8.6-7.2-14.7 0-.3 0-.6.1-.9.5-2 1-3.9 1.4-5.9 1-6 2.5-11.9 4.7-17.5 2.7-6.9 6.1-13.5 9.9-19.9 3.4-5.7 7.1-11.3 10.6-16.9 2.9-4.6 5.8-9.1 8.6-13.8 1.8-3 3.5-6 5.8-8.6.1-.1.2-.2.2-.3.2-.4.3-.7 0-1.1-.3-.3-.7-.3-1 0-.4.3-.7.7-1 1.1-1.3 1.5-2.5 3.1-3.9 4.6-1.3 1.5-2.8 2.8-4.1 4.2-5.8 6.7-11 13.9-15.8 21.3-4.2 6.5-7.9 13.3-11.3 20.3-3.2 6.7-5.6 13.7-6.8 21-.1.3-.2.7-.4.8-1 .5-1.2 1.4-1.3 2.4-.2 3.6-.5 7.1-.6 10.7 0 1.4.2 2.8.5 4.2.9 4.4 3.2 8 6.4 11.1.3.3.6.6 1 .9l-.4.4c-.8.8-.7 1.5.3 2 .3.1.6.2 1 .3 3.4.8 6.6 2.3 9.3 4.5 1.5 1.2 3 2.6 4.3 4 4.6 5 9 10 13.5 15 2.8 3.5 5.9 6.8 9 10.1zm-30.6 4.4c-.8-.8-1.7-1.6-2.4-2.5-1.2-1.4-2.7-2.2-4.3-3-1-.5-2.1-.8-3.2-.9-4.2-.6-7.7 1.1-10.6 3.9-1.8 1.8-3.2 3.9-4.2 6.3-.5 1.3-.9 2.6-1.1 4-.2 1.7-.2 3.4-.3 5.1.1 3.1-.2 6.2.9 9.2 1.5 4.1 4.2 6.9 8.5 8 1 .3 2 .3 3.1.4 4.9.5 8.9-1.1 11.8-5.1.8-1.1 1.7-2.3 2.5-3.5 3.2-4.7 3.5-10 3-15.3-.3-2.6-1.9-4.7-3.7-6.6zm-136.8 13.3c-.1-1.5-.2-3.1-.2-4.6-.1-1.4-.4-2.8-.9-4.1-.9-2.2-2.2-4.1-3.7-6-1.8-2.3-4.2-3.7-6.9-4.4-4.1-1.1-7.7.2-10.9 2.8-1.6 1.3-3 3-4.4 4.5-1.5 1.7-2.6 3.7-2.7 6-.1 2.1-.1 4.3.1 6.4.2 1.6.5 3.3 1.1 4.7 1.4 3.5 3.5 6.5 6.2 9.1 1.8 1.7 3.9 2.8 6.4 3 1.7.1 3.4.1 5.1-.1 4.5-.5 7.6-3 9.5-7 1-2.1 1.5-4.3 1.4-6.6-.2-1.2-.1-2.4-.1-3.7zm-101.9-32.5c.4.7.6 1.4.8 2 1.3 3.3 2.8 6.4 5.5 8.7.5.4.8 1.2 1.2 1.8.4.7.9 1.1 1.6.9.6-.2 1.1-1 .9-1.7-.1-.4-.3-.7-.5-1-.2-.4-.5-.7-.7-1.1-1.1-2.8-2.3-5.6-3.3-8.4-.5-1.3-.9-2.6-1-4-.2-3.8-.3-7.6-.3-11.3-.1-4.9-.1-9.7-.1-14.6 0-.3 0-.6.1-.9.3-4.5.8-8.9.9-13.4.2-10 .2-19.9-1.5-29.8-1-6-2.4-12-4.8-17.6-.2-.4-.4-.8-.8-1.2 0 1.5-.1 2.9-.1 4.3v95.8c.7-2.8 1.4-5.6 2.1-8.5zm314.2-51.5v-1.4h-.3c-2.8 7.1-3.6 14.5-4.4 21.8-.1-1.1-.3-2.4-.4-3.7-.3-2.3-1.7-4-2.9-5.8-.4-.6-1-.7-1.6-.5-.6.3-.9.9-.8 1.6.1.5.2 1.1.3 1.6.5 2.6.9 5.2 1.4 7.9.1.6.4 1.1.8 1.6.7.8 1.8.7 2.4-.2.2-.3.3-.6.6-1v22.9c0 4.1.6 8.1 1.9 11.9.8 2.2.6 4.1-.4 6.1-2.2 4.4-4.3 8.9-6.4 13.4-.2.3-.3.7-.5 1.1 1.9.2 3.4-.6 4.9-1.5.6-.4 1.1-.9 1.4-1.6.9-2.3 2-4.6 2.9-6.9.2-.5.3-1.2.3-1.7 0-10-.1-19.9.1-29.9.1-12.1.4-23.9.7-35.7zm-111.4 209.6c.2-.2.4-.3.6-.5.3-.4.4-.9.8-1.2 1.7-1.3 2.7-3.2 3.7-5.1.4-.8.9-1.3 1.7-1.6 1.2.7 1.7.6 2.6-.5.1-.1.2-.3.3-.4.9-1.1 1.8-2.3 2.9-3.3 5.3-4.5 10.3-9.4 14.7-14.8 1.6-1.9 3.1-4 4.2-6.3.7-1.5 1.6-2.9 2.4-4.4.1-.3.3-.5.5-.8.2-.4.5-.9-.1-1.2-.6-.3-.8.3-1 .7-.8 1.1-1.5 2.3-2.4 3.3-1.5 1.7-3.1 3.2-4.6 4.9-4.2 4.7-8.4 9.3-13.1 13.4-.3.2-.6.5-.8.7-.3-.5-.5-.9-.8-1.3-.8-1-2.1-1-2.9 0-.4.4-.6 1.1-.7 1.6-.1.7 0 1.4 0 2.1 0 1.5-.2 1.8-1.7 2.4-.1-.5-.2-.9-.3-1.4-.1-.4-.4-.9-.8-.8-.3.1-.6.5-.8.9-.1.2-.2.6-.2.9-.1.6-.1 1.1-.2 1.7-.1.5-.2 1.1-.5 1.4-.9.8-1.9 1.5-3.1 2.4 0-1.4.1-2.5 0-3.6-.1-.6-.3-1.3-.6-1.8-.5-.8-1.4-.8-1.9 0-.3.6-.6 1.3-.6 1.9-.1 2.2-.5 4.3-1.2 6.4-.3 1-.6 2-.7 3-.1.6-.1 1.2-.1 1.9 1.9-.3 2.2-.7 4.8-6.4.6 0 1.2-.1 1.7-.1l-1.8 5.7c-.2.1-.1.1 0 .2zm-63.5-105c-1.2.1-2.5.2-3.6 1-.5.3-.7.7-.4 1.3.4.9.7 1.2 1.8 1.3l2.1.3c.2 0 .3 0 .5-.1.5-.1 1-.2 1.5-.2h9.8c2 0 3.9-.1 5.9-.5 1.1-.2 2.3-.2 3.4-.1 1.4.1 1.8-.3 1.5-1.6v-.2c2.2-.2 4.3-.2 6.3-.5 1.1-.1 2.2-.3 3.3 0h.5c0-.7-.4-.8-.9-.9-.6-.1-1.2-.1-1.8-.2-3.9-.6-7.8-1.2-11.7-1.9-3.3-.6-6.6-1.2-9.8-1.9.2-.2.4-.2.6-.2 3.2.1 6.4.2 9.5.2 1.7 0 3.3-.2 5-.4.7-.1 1.4-.2 2.1.3.4.3.9.2 1.1-.2.2-.3.3-.8.2-1.2-.1-.6-.7-.8-1.3-.9-1.3-.1-2.6-.4-3.8-.4-2.9-.1-5.8-.2-8.8-.2-1.8 0-3.7.3-5.5.4-.7 0-1.3.2-1.6.9-.2.7.5.9.9 1.4-.7 0-1.4-.1-2.1 0-1.1.1-1.6.5-1.6 1.1 0 .6.4 1 1.5 1.3 2.3.5 4.7 1 7 1.5v.2h-1.5c-3.1.1-6.6.2-10.1.4zm54.7 16.1c-.8-1.1-1.9-2.1-2.9-3.1-3.3-3.2-7.1-5.6-11.1-7.9-2.7-1.6-5.5-2.7-8.6-3.2-1-.1-1.8.1-2.8 1 .7.4 1.1.6 1.6.9.9.5 1.9.8 2.8 1.4 2.2 1.3 4.4 2.7 6.5 4.1.5.3 1.1.7 1.5 1.1.7.6 1.3 1.2 2 1.8 2 1.6 4.1 3.1 6.2 4.7 4.8 3.7 9.4 7.5 12.9 12.5 1.4 2 3.1 4 3.3 6.6 0 .2.3.5.5.5s.6-.1.6-.3c.1-.4.3-.9.2-1.4-.5-2.2-1.1-4.4-2.5-6.3-.2-.2-.5-.5-.4-.8.1-.9-.4-1.5-.9-2-1.4-1.6-2.7-3.3-4.3-4.8-1.6-1.7-3.3-3-4.6-4.8zm-166.5 74.2c.4-2.8 1.2-5.6 1.8-8.4.1-.7.2-1.4.1-2 0-.6-.4-.9-.9-1.1-.5-.2-.9 0-1.3.4-.3.3-.5.6-.6 1-1.1 2-2 4.2-2.5 6.5-.6 2.7-1.2 5.4-1.7 8.2-.6 3.3-1 6.6-1.5 9.8 1.4 1.1 2.8 2.1 4.2 3.1.8-5.9 1.5-11.7 2.4-17.5zm287.2-241c-1.1-2.9-2.3-5.7-3.4-8.5l-.5-.5v7.6c0 4.6-.3 9.2-1 13.7-.5 3-1.2 6.1-1.7 9.1-.2 1.3-.3 2.6-.4 4 0 .4.3.8.5 1.5.5-.4.9-.7 1.2-1 1.1-1.1 1.5-2.5 2-3.8 2.3-6.2 3.4-12.7 3.7-19.3.1-.9 0-1.9-.4-2.8z"/><path d="M3879.6 3133.45c.3.8 1.1 1.2 2.1 1 .6-.1 1.2-.2 1.8-.1 2.3.5 4.6.4 6.9.5 3.3.2 6.6.4 9.9.7 1.1.1 2.1.3 3.2.4 1.2.1 2.2-.4 2.5-1.4.2-.9-.3-1.8-1.3-2.4-.4-.2-.8-.3-1.2-.5-4.2-1.5-8.5-2-13.9-2-2.3-.2-5.5.4-8.7 1.7-1.2.4-1.6 1.2-1.3 2.1zm196.9 190.5c0 .5.2.9.7.9.3 0 .8-.2.9-.5.3-.5.4-1.1.5-1.7.1-.7.2-1.4.3-2.2.1-1.1.2-2.1.4-3.2.1-.5.1-1 .3-1.3.8-1.3 1-2.7 1-4.2 0-1.8-.2-3.5-.8-5.3-.7-2-1.8-3.7-3.3-5.1-1.2-1.1-2.3-2.2-3.5-3.2-1-.9-2.1-1.6-3.2-2.4-.4-.3-1-.5-1.5-.6-.9-.1-1.5.2-1.8.8-.3.7.1 1.3.5 1.7.7.7 1.4 1.3 2.1 1.9 2.4 2.1 4.7 4.1 7.1 6.2.3.3.7.5.8.8.3 1.2.7 2.4.2 3.6-.1 0-.2.1-.2.1-1.5-.1-2 .4-1.9 1.9 0 .3.1.7.2 1 .2 1.2.4 2.5.7 3.7.3 1.1.1 2-.8 2.8-.2.1-.2.4-.4.7l.2.2c.4-.2.8-.5 1.2-.7.5 1 .6 2.1.4 3.1 0 .3 0 .7-.1 1zm9.9-188.5c.5-1.4-.5-2.6-2-2.6-.9 0-1.5.5-1.9 1.2l-1.8 3.3c-2.3 4.7-3.9 9.8-5.4 14.8-.4 1.4-.8 2.7-1 4.1-.3 2.2-.4 4.4-1.4 6.4-.2.5-.2.9.3 1.2.5.3.9 0 1.2-.4l.9-2.1c.4-1 .7-1.9 1.1-2.9 1.1-2.6 2.4-5 3.4-7.6 1.9-5 3.6-10.2 6.5-14.8 0-.3.1-.5.1-.6zm59.2 149.9c-3.3-3.9-6.6-7.8-10.5-11.1-.4-.4-.8-.8-1.3-1-.3-.1-.9-.1-1.2.1-.4.2-.3.7-.2 1.2.1.3.3.5.5.8 1.3 1.8 2.5 3.6 3.9 5.3 4.6 5.7 8.8 11.6 12.4 18 .3.5.6.9.9 1.4h.3c.3-1.9.6-3.7.9-5.6.2-.9-.1-1.7-.6-2.4-1.7-2.3-3.3-4.5-5.1-6.7zm-202.2 5.9c.2-.1.5-.1.7-.3 1-.7 2-1.3 2.9-2.1 2.8-2.6 5.4-5.3 8.2-7.8 3.3-3 6.7-5.9 10.2-8.7 2-1.6 3.9-3.2 6.5-3.9.2-.1.4-.2.5-.3.1-.1.1-.4.1-.6 0-.1-.3-.2-.4-.2-.2 0-.5.1-.7.2-.7.3-1.4.6-2.2.8-3.9.8-7.2 2.7-10.3 5-4 2.9-7.6 6.3-11 9.9-1.5 1.6-2.9 3.3-4.2 5-.5.6-.7 1.4-1 2.2-.2.4.1.7.7.8zm-36-143.7c.2-.9 0-1.7-.4-2.5-.7-1.3-1.8-2.3-3.1-3-2.8-1.6-5.8-2.4-9.6-2.5-1.6-.2-3.4.7-5.3 1.4-.8.3-1.1 1.1-.9 1.8.2.7.7 1 1.6 1.1.5 0 1.1.2 1.6.3.6.1 1.2.3 1.9.4 4.1.6 8.1 1.5 11.3 4.4 1.1.8 2.6.1 2.9-1.4zm173.6 24.5c.1.9.4 1.3 1.1 1.3.6 0 .9-.5 1-1.3.1-.9.3-1.8.5-2.6.1-.4.2-.8.3-1.3.5-2.3.9-4.7 1.7-7 1.3-3.7 2.8-7.4 4.2-11 0-.1.1-.2.1-.2.3-.8.1-1.4-.4-1.8-.5-.4-1.4-.4-1.9.1-.6.6-1.2 1.2-1.6 2-1.7 3.2-3.2 6.5-4.2 9.9-.7 2.2-1.2 4.5-1.3 6.8.1.9.1 1.7.2 2.6 0 .7.2 1.6.3 2.5zm-150.7 123.9c-4.1-.6-8-.4-11.9.9-3.1 1.1-5.9 2.6-8.3 4.8-.7.7-1.3 1.4-1.3 2.6.4-.1.6-.1.8-.2 3.5-1.1 6.9-2.2 10.4-3.3 2.5-.8 5-1.2 7.6-1.2 1.4 0 2.7-.2 4.1-.4 1-.2 1.6-.8 1.5-1.6 0-.8-.7-1.4-1.7-1.5-.4 0-.8 0-1.2-.1zm181.4 54.5c-.5-.4-1.2-.3-1.7.1-.4.4-.5 1-.1 1.7.1.3.3.5.5.7.6.9 1.3 1.7 1.9 2.6 2.8 3.9 5.5 7.8 7.5 12.2.1.2.2.4.4.6 1.6-.5 3.2-.8 4.2-2.5-2.6-5-5.8-9.5-9.8-13.4-.9-.8-2-1.4-2.9-2zm-265.9-213.5c-.5 1.2-.7 2.5-1 3.7h.2v.4c0 1.4.6 2.2 1.6 2.3.9.1 1.6-.5 2-1.8.5-1.5 1-3.1 1.6-4.6 1.3-2.7 2.7-5.3 4.1-8 .5-.9.9-1.9 1.3-2.9.2-.4.5-.8.7-1.2.2-.2.4-.5.5-.7.3-.7-.2-1.3-.9-1.1-.3.1-.6.3-.8.5-.4.3-.7.8-1.2 1-1.8.8-2.9 2.2-3.9 3.8-1.7 2.7-3 5.6-4.2 8.6zm99.9 85.4c-.2.5-.5 1-.9 1.4-.5.5-.6 1.1-.4 1.7.1.5.3 1 .6 1.4.9 1.4 1.9 2.9 2.9 4.3.2.3.4.5.7.8.7.6 1.4.6 2 .2.6-.4 1-1.2.7-2-.1-.4-.4-.9-.6-1.2-1.3-1.7-2.6-3.3-3.9-5 .2-.1.6-.3.9-.5 1.3 1.2 2.5 2.4 3.8 3.7.5-.4 1-.6 1.3-1.1.4-.9-.3-1.6-.6-2.4 1-.7 1.2-1.1.7-1.9-.7-1-1.4-2-2.2-2.8-1.2-1.2-2.6-2.3-3.9-3.3-.4-.3-.9-.5-1.4-.6-.7-.1-1 .2-.8.9.2.6.4 1.1.8 1.6 1 1.1 2.1 2.1 3.3 3.3-1.5-.3-2.4.3-3 1.5zm205.1 23.6c.2-1.5.3-3 .4-4.6-.5.2-.8.3-1.1.4-1.5.7-3.1 1.4-4.6 2-1.7.8-3.5 1.3-5.5 1.2-1.4-.1-2.9-.2-4.3-.3-1-.1-1.6.2-2 .8-.4.7-.2 1.6.4 2.3.3.3.6.6.9.7.6.3 1.2.6 1.9.7 2 .4 4 .4 6 .1 2.7-.4 5-1.6 7.4-2.8.3.1.5-.2.5-.5zm-45.9 19.4c.3.1.9 0 1.2-.2.3-.2.5-.7.6-1.1.2-.5.4-1 .7-1.5.5-1 1.1-1.9 1.5-3 .9-2.4 1.8-4.8 2.6-7.3.4-1.2.5-2.5.8-3.5-.1-1-.2-1.8-.4-2.5-.2-1-1-1.6-1.9-1.6-.8 0-1.6.6-1.8 1.6-.1.4-.2.8-.2 1.3 0 1.7-.3 3.2-.9 4.8-1.5 3.8-2 7.9-2.9 11.8 0 .1-.1.3 0 .4.2.2.4.7.7.8zm27.7 84.7c-1.4-.5-3-.7-4.3-1.6-.2-.2-.6-.2-.9-.2l-5.1-.3h-1c.3 1 1 1.5 1.6 2.1 2.9 2.4 5.7 4.9 8.2 7.8.2.2.2.5.4.8 2.2-2.3 4.2-4.4 6.4-6.6-1.9-.8-3.6-1.4-5.3-2zm-287.9-258.6c0-.3.2-.6.2-.9.1-.6-.1-1.1-.7-1.4-.5-.3-1.1-.3-1.6.1-.4.3-.7.6-.9 1.1-.4.8-.7 1.7-.9 2.5-.6 2.6-.7 5.3-.8 7.6.1 1.8.1 3.2.2 4.7.2 1.5.5 3.1.9 4.5.5 1.5 1.2 2.9 1.1 4.6 0 .2.3.7.6.7.2 0 .7-.3.7-.5.1-.5.1-1.1.1-1.6-.1-1.3-.4-2.6-.4-3.8.1-3.9.2-7.8.5-11.7.3-2.1.7-4 1-5.9zm-10.9 161.3c4.1-2.3 8.2-4.7 12.3-7 .5-.3 1-.6 1.5-1 .7-.7.7-1.1-.2-1.5-.6-.2-1.3-.3-2-.3-.6 0-1.2.3-1.7.5-3.4 1.3-6.6 2.9-9.8 4.7v4.6zm279.1 15.7c.9-2.7 1.4-5.6 1.7-8.5-.2-.8-.3-1.7-.7-2.4-.4-.9-1.4-.9-1.9-.1-.3.4-.4.9-.6 1.4-1.5 4.9-2.9 9.8-4.3 14.7-.2.8-.5 1.6-.6 2.4-.2.8.2 1.5.8 1.7.6.2 1.2.1 1.7-.6.5-.6 1-1.3 1.3-2 1-2.2 1.9-4.3 2.6-6.6zm-263.8-39.9c.1.1.5-.2.6-.3.1-.2-.1-.5-.2-.6-.2-.2-.6-.4-.8-.6-.9-.9-1.6-1.9-2.6-2.7-2.8-2.4-5.2-5.1-6.7-8.5-.3-.7-.9-1.2-1.7-1.1-.8.1-1.5.5-1.7 1.3-.2.4-.2.9-.3 1.5.2.6.4 1.3.7 2 .4.9 1 1.7 1.5 2.5 1.6 2.3 3.6 4.2 6 5.8 1.1.7 2.3 1.3 3.6 1 .5-.3 1-.6 1.6-.3zm5.7 121.6c1.1-2.7 2.2-5.5 3.2-8.3.2-.4.3-.8.3-1.2 0-.3-.2-.8-.4-.9-.3-.1-.7 0-1.1.1-.2.1-.4.4-.6.7-.8 1.2-1.5 2.5-2.2 3.8-2 3.9-3.7 7.9-5.3 12 .8.9 1.6 1.8 2.5 2.7 1.2-3 2.4-5.9 3.6-8.9zm234-167.9c.5.2.8-.1 1-.5.1-.1.1-.2.2-.3.2-1 .5-1.9 1.1-2.7.2-.3.2-.6.3-1 .2-1.4.3-2.7.6-4.1.5-2.1 1.2-4.1 1.8-6.2.2-.7.3-1.3.5-2h-.1v-.5c-.1-1-.6-1.7-1.5-1.9-.8-.2-1.6.2-2.1 1.1-.2.3-.3.5-.4.8-.5 1.3-1 2.5-1.5 3.8-.8 2.1-1.3 4.4-1.2 6.7.1 1.3.1 2.6.8 3.7.4.7.7 1.3.3 2-.3.4-.3.9.2 1.1zm16.4 191.6c0-.3 0-.5-.1-.7-.4-1.4-.7-2.8-1.1-4.2-.6-2.2-1.3-4.4-1.5-6.6 0-.5-.3-1.1-.5-1.6-.3-.6-.9-.6-1.2-.1-.2.2-.3.5-.4.8-.2 1-.5 1.9-.7 2.9-.5 4.1-1.2 8.2-2.4 12.2v.5h.1c2.8-1 5.3-2.1 7.8-3.2zm-223.8-115.1c-1.5-2.7-3.1-5.4-4.6-8.2-.3-.5-.5-1-.9-1.4-.3-.4-.6-.8-1-1.1-.3-.2-.8-.3-1-.4-1.3 0-2.2.9-2.1 2.1.1.8.3 1.6.7 2.3 1.9 3.5 4 6.8 6.3 10 .6.9 1.6 1.1 2.5 1.5.2.1.7-.2.8-.4.2-.4.4-1 .3-1.4-.2-1.1-.5-2.1-1-3zm-14.3 102.9c.1-1.1.1-2.1.1-3.2 0-.9-.4-1.4-1.1-1.6-.7-.2-1.4.1-1.8.9-.3.5-.5 1.1-.6 1.7-.3 1.9-.5 3.8-.7 5.7-.1 1.1-.1 2.2-.2 3.2 1.1.7 2.3 1.3 3.5 2 .4-2.8.6-5.7.8-8.7zm-22.5-108.2c.4-.4.8-.9 1.1-1.4.3-.4.5-.8.2-1.3-.4-.5-.9-.4-1.4-.2-.6.3-1.3.7-1.9 1.1-3.2 2.6-6.1 5.6-8.7 8.7v4.4c3.4-3.9 7-7.6 10.7-11.3zm290.5-59.6c.6.2 1.1.1 1.5-.3.3-.3.6-.6.8-1 .4-.8.8-1.7 1-2.6.9-3.5 1.1-7.1.8-10.7-.1-1.9-1.1-3.2-2-4.7h-.2c.2.8.2.8-.3 1.6-.3.4-.5.9-.6 1.4-.2 1-.4 2-.4 3.1-.1 2.9-.4 5.8-1 8.7-.2 1.1-.3 2.2-.3 3.3-.1.5.2 1 .7 1.2zm-257.8 79.1c.4-.5.4-1.1.1-1.7-1.1-2.3-2.3-4.6-3.4-6.9-.4-.9-.7-1.8-1-2.8-.1-.3-.2-.6-.4-1-.5-1.1-1.3-1.7-2.2-1.5-1 .2-1.6 1-1.6 2.6.1.4.1 1.2.4 1.8.8 2 1.5 4 2.5 5.9.8 1.8 2.2 3.2 4.2 3.7.5.3 1 .4 1.4-.1zm171.2-52.1c.3-.4.5-.9.1-1.4-.4-.5-1-.3-1.4-.1-.2.1-.5.2-.7.3-.7.6-1.5 1.2-2 1.9-1.2 1.6-2.2 3.3-3.3 4.9-.7 1.2-.6 1.7.6 2.6-.6 1.6.6 3 2.7 2.5.3-.1.6-.3.9-.4 1.5-.6 2.6-1.9 3.9-2.9.4-.3.5-.8.2-1.3s-.7-.8-1.3-.6c-1.3.4-2.7.4-3.9 1.2-.1.1-.3.1-.6.1.4-.6.7-1 1-1.4 1.3-1.8 2.6-3.6 3.8-5.4zm53.2 31.2c.5.3 1.1.1 1.6-.5.1-.1.2-.3.3-.4.4-.6.7-1.2 1.2-1.7 2.1-2.4 2.8-5.3 3.3-7.9 0-2-.8-3.2-2.1-3.4-1.2-.1-2.4.9-2.7 2.4-.2 1.2-.5 2.4-.7 3.5-.3 1.6-.7 3.1-.5 4.7.1.6 0 1.2-.4 1.7-.6.8-.5 1.3 0 1.6zm-200.5-100.6c-.3-.5-.8-.8-1.2-1.1-.4-.3-.9-.4-1.4-.6-.8 0-1.5.3-2 .9-.4.4-.6.9-.3 1.4 1.4 2.9 3 5.8 5.2 8.2.3.3.7.6 1 .8 1.6.8 3-.2 2.8-1.9-.1-.7-.2-1.4-.6-2-1.1-2-2.3-3.9-3.5-5.7zm-15-27.6c3.5-1.7 7.2-2.8 11.2-2.7.9 0 1.7-.4 2.6-.7.5-.2.9-.5 1.4-.9-.3-.2-.7-.3-.9-.6-.6-.8-1.6-1-2.5-1.1-3.9-.5-7.6.2-11.1 2.1-.8.4-1.6 1.1-2.3 1.7-.6.6-.7 1.3-.3 1.8.5.6 1.1.8 1.9.4zm-13.2 158.3c.9.3 1.6-.1 1.8-1.2-.3-1-.5-2.2-1.1-3.1-1.3-2.2-2.7-4.3-4.1-6.4-.6-.9-1.4-1.2-2.2-.9-.9.3-1.5 1.1-1.6 2.1-.1.8.2 1.5.7 2.2 1 1.6 2.1 3.1 3.1 4.7.8 1.2 1.9 2.1 3.4 2.6zm274.7-20.6c-2.6-.9-5.1-1.9-7.7-2.7-1.1-.3-2.3-.3-3.4-.3-.4 0-.8.3-1.3.5.2.3.3.5.4.7.8 1 1.9 1.6 3 2.2 3.1 1.7 6.3 3.3 9.4 4.9h.4c0-1.3 0-2.6.1-3.9.1-.8-.2-1.2-.9-1.4zm-238.3-8c.6.1 1.1-.5.8-1.1-.7-1.1-1.3-2.3-2.1-3.3-1.1-1.6-2.5-2.9-2.9-5 0-.2-.2-.4-.3-.6-.6-1-1.6-1.2-2.5-.6-.9.6-1.4 1.4-1.4 2.4v.3c.4 2.5 2 4.2 3.6 6 1.3 1.4 3 1.6 4.8 1.9zm203.4 30.8c.2-.2.6-.3.6-.5.2-.6.5-1 1-1.4.3-.2.5-.5.6-.8.9-2.1 1.8-4.1 2.7-6.3.3-.7.3-1.5.4-2.3h-.1c0-.4 0-.8-.1-1.2-.1-.4-.1-.8-.2-1.3-.3-1-.9-1.7-1.6-1.6-.7 0-1.2.6-1.5 1.6-.1.4-.2.8-.2 1.1-.1 1.8-.6 3.5-1.3 5.2-.3.6-.5 1.2-.6 1.8-.2.9-.4 1.9-.3 2.8 0 .7.4 1.3.2 2 0 .3.3.6.4.9zm38.9-52.7c-1.1.9-2.3 1.7-3.4 2.6-2 1.6-3.9 3.2-6.6 3.6-1 .1-1.5.8-1.5 1.7 0 .8.6 1.4 1.6 1.6 1.4.3 2.8.1 4.1-.5 2.1-1 3.8-2.5 5.3-4.2.2-.2.4-.4.4-.7v-4.1zm-107.7-16.6c-2.4 2.3-4.2 5-5.7 7.9-.3.6-.7 1.3-.8 2-.1.9-.1 1.8 0 2.7.1.6.5 1 1.2 1s1.1-.4 1.2-1c.5-2.9 2.2-5.2 3.8-7.5 1.1-1.7 2.2-3.3 3.2-5 .4-.6.6-1.2 1-2.1-.5.1-.8 0-.9.1-1.1.6-2.2 1.1-3 1.9zm-163.1 38.2c.8-.5.9-1.1.9-1.8.2-2.6-.3-5.1-1.2-7.6-.5-1.5-1.1-2.9-1.7-4.3-.4-.9-1.3-1.3-2.1-1-.8.2-1.3 1.1-1.1 2.1.1.7.3 1.4.6 2.1.7 1.9 1.4 3.8 2.2 5.7.3.8.7 1.6 1.1 2.3.3.6 1 .9.8 1.8 0 .2.3.4.5.7zm262.3 18c-.6-.3-1.3-.4-2-.5-.9 0-1.3.6-.9 1.4.2.5.5 1 .9 1.4.7.9 1.5 1.7 2.2 2.6 1.6 2 3.3 4 4.9 5.9h.2v-6.4c0-.3-.2-.7-.4-.9-1.5-1.3-3-2.6-4.9-3.5zm-244.9 44.2c2.4-2.4 4.7-4.9 7-7.4.2-.3.6-.7.5-.9-.2-.4-.6-.8-1-.9-1-.3-2 0-3 .4-2.4 1.1-3.8 3.1-4.9 5.7 1.1-1.1 1.9-2 2.8-2.9.1.1.2.2.3.2-.9 1.2-1.8 2.4-2.6 3.6-.4.6-.7 1.4-1 2.1-.1.4 0 .9-.1 1.4-.1.4-.4.7-.5 1.1.7-.9 1.7-1.6 2.5-2.4zm144.9-24c.2.7.7.8 1.2.9 1.6.3 3.2.6 4.8.7 3.5.3 7 .4 10.5.6 1.2.1 2.4.1 3.5.6.1 0 .2-.1.5-.1-.2-.2-.2-.5-.4-.6l-5.1-1.8c-2-.6-4.1-.5-6.1-.6-2.3-.1-4.6-.3-6.9-.4-.8-.1-1.5-.1-2 .7zm40.6-43c.7-3.2.6-6.3-.5-9.4-.1-.3-.3-.6-.6-.8-.6-.6-1.2-.5-1.6.2-.3.5-.4 1.1-.4 1.7.1 1.6.4 3.2.5 4.7.1 2.1 0 4.2 0 6.5 1.5-.7 2.2-1.4 2.6-2.9zm62.9 18.1c-1-.5-2-1.2-3-1.7-.8-.4-1.5-.1-1.8.4-.4.6-.1 1.2.2 1.6.5.7 1 1.4 1.6 2 1.5 1.4 3.1 2.8 4.6 4.2.1-.1.2-.1.3-.2 0-.9-.1-1.8 0-2.7.3-1.7-.4-2.8-1.9-3.6zm-246.3-17.3c-.1-.5-.1-1-.3-1.5-.3-.7-.8-1.1-1.6-1.1s-1.3.4-1.6 1.1c-.7 2.4-.2 4.9 2.2 6.2.9.5 1.8.7 2.6 0 .2-.2.5-.2.9-.3-.7-1.1-1.4-2-2-3.1 0-.3-.1-.8-.2-1.3zm186.8-5.7c-.8 0-1.4.7-1.6 1.7-.1.7-.1 1.4-.1 1.9.1 1.6 0 3 .7 4.3.1.1 0 .3.1.5.1.7.4.9 1 .6.9-.6 1.6-1.3 1.7-2.4.1-.8.2-1.6.2-2.4 0-.9 0-1.7-.2-2.6-.2-1-1-1.6-1.8-1.6zm-219.1-32.6c-.6.2-1.1.6-1.7.9-.9.4-1.7.7-2.6 1.1-1.8.8-3.7 1.6-5.5 2.3-.2.1-.4.1-.5.2-.3.3-.6.7-.6 1 0 .5.4.8.9.9.2 0 .4.1.6.1.4 0 .8 0 1.1-.1 3.5-1 6.3-3.1 8.9-5.6.1-.1.1-.5.1-.8-.1 0-.4-.1-.7 0zm221.9-21.1c.4.2.9.3 1.3.3.8-.1 1.4-.7 1.7-1.4.8-1.5 1.6-3 2.2-4.6.4-1.1.5-2.4.8-3.8-.1-.1-.3-.5-.5-.5s-.5.2-.6.4c-.2.4-.3.9-.6 1.3-.6 1-1.3 1.9-1.9 2.9-.9 1.4-1.4 3.1-2.6 4.2-.4.4-.3 1 .2 1.2zm-225.2 95.2c-.7.2-1.2 1-1.2 2 .2.3.4.9.8 1.4.9 1.1 2 2.1 3.3 2.8.7.4 1.3.4 1.8 0s.7-1 .2-1.7c-.9-1.4-1.8-2.8-2.8-4.1-.5-.7-1.3-.6-2.1-.4zm265.1 75.4c-1.7-1.9-3.1-3.7-4.7-5.4-.2-.3-.8-.4-1.1-.3-.3.1-.6.6-.7 1-.1.5 0 1 .2 1.5.8 2.2 2.5 3.7 3.8 5.4.9-.8 1.6-1.5 2.5-2.2zm-163.5-96.7c-.6.1-1.1.2-1.4.8.2.6.7.7 1.2.8.6.1 1.3.1 1.9.2 1.7.1 3.4.3 5.1.4.9.1 1.7.1 2.6.1.7.1 1.4.2 2.1.2.2 0 .5-.1.8-.2-.1-.3-.1-.6-.3-.8-.1-.1-.4-.2-.6-.2-1.6-.4-3.1-.8-4.7-1.2-2.1-.3-4.4-.4-6.7-.1zm-121.9-26.5c.5.2 1.1.3 1.6.3s1.1-.1 1.8-.2c-.5-.6-1-1.2-1.5-1.7-1.7-1.5-3.5-3-5.3-4.5-.4-.3-.8-.5-1.3-.2s-.7.7-.5 1.2c.1.5.3 1.1.6 1.5 1.3 1.5 2.9 2.7 4.6 3.6zm261.9 133.1c.1 1 .3 1.9.4 3 .9-.3 1.6-.6 2.4-1-.4-3.2-1.2-6.1-1.9-9.1v-.1c-.2-.2-.4-.5-.6-.5-.2 0-.6.3-.6.5-.1 1-.3 2-.2 2.9 0 1.5.3 2.9.5 4.3zm-252.2-148.1c-.6.3-.6.9 0 1.3.5.3 1.2.4 1.6.6.6-.1 1-.1 1.4-.2.9-.3 1.8-.7 2.6-1.2.8-.4 1.5-1 2.2-1.6.4-.3.7-.8.3-1.4-.3-.5-.8-.6-1.5-.3-.2.1-.4.3-.6.4-1.3.9-2.6 1.5-4.1 1.7-.7.2-1.3.4-1.9.7zm137.3 27.8c1.3-.2 2.6-.4 4.1.2 0-.4.1-.7 0-.8-.3-.2-.6-.5-1-.6-.7-.1-1.4-.2-2.2-.3l-5.1-.3c-.4 0-.8.1-1.1.2-.3.1-.5.5-.8.7.2.2.5.5.7.6.2.1.5.2.7.2 1.6.2 3.1.2 4.7.1zm-118.3-185c.6 1 1.1 1.8 1.8 2.6.4.4 1 .8 1.6 1 1.2.3 1.9-.5 1.5-1.7-.4-1.2-1.1-2.2-2-3.2-1 .3-1.9.8-2.9 1.3zm267.9 187.7c.1-.1.2-.3.5-.7h-4.2c-.6 0-1.2.3-1.9.4-.6.2-1.1.5-1 1.2.1.6.7.7 1.3.8h.3c1.8-.2 3.5-.7 5-1.7zm-239.1 60.9c-.2.1-.4.3-.5.4-1.1 1.4-1.8 3-1.7 4.9 0 .5.1 1 .8 1.4.2-.4.5-.9.6-1.3.4-1.1.7-2.2 1.1-3.3.2-.5.4-.9.6-1.4.1-.2-.1-.6-.2-.8-.1-.1-.5 0-.7.1zm40.9-83.4v1.3c0 .3.1.7.1 1 0 .4 0 .8.4.8.3 0 .7-.1.9-.3.6-.6.9-1.4.9-2.3v-.4c-.1-.7-.5-1.2-1.1-1.2-.7 0-1.1.4-1.2 1.1zm175.8 52.3c-.3 0-.7.3-.9.6-.6 1.1-.2 2.3.8 3.2 1.1-.8 1.4-2.3.8-3.3-.1-.2-.4-.5-.7-.5zm-215.2 42.2c.7-1.6.7-2.5-.1-3.1-.6.9-.3 1.9.1 3.1z"/><path d="M4151.7 3316.25c0 33.8-27.2 61.2-60.9 61.2h-196.1c-33.6 0-60.9-27.4-60.9-61.2v-197.1c0-33.8 27.3-61.1 60.9-61.1h196.1c33.6 0 60.9 27.4 60.9 61.2z" stroke-miterlimit="10" stroke-width="5" stroke="#000" fill="none"/></g></svg>